<?xml version="1.0" encoding="utf-8" standalone="no"?>
<!DOCTYPE svg PUBLIC "-//W3C//DTD SVG 1.1//EN"
  "http://www.w3.org/Graphics/SVG/1.1/DTD/svg11.dtd">
<!-- Created with matplotlib (https://matplotlib.org/) -->
<svg height="326.922187pt" version="1.1" viewBox="0 0 339.4575 326.922187" width="339.4575pt" xmlns="http://www.w3.org/2000/svg" xmlns:xlink="http://www.w3.org/1999/xlink">
 <defs>
  <style type="text/css">
*{stroke-linecap:butt;stroke-linejoin:round;white-space:pre;}
  </style>
 </defs>
 <g id="figure_1">
  <g id="patch_1">
   <path d="M 0 326.922187 
L 339.4575 326.922187 
L 339.4575 0 
L 0 0 
z
" style="fill:#ffffff;"/>
  </g>
  <g id="axes_1">
   <g id="patch_2">
    <path d="M 49.44 283.559062 
L 328.44 283.559062 
L 328.44 11.759062 
L 49.44 11.759062 
z
" style="fill:#ffffff;"/>
   </g>
   <g id="matplotlib.axis_1">
    <g id="xtick_1">
     <g id="line2d_1">
      <defs>
       <path d="M 0 0 
L 0 3.5 
" id="m4db762ba2c" style="stroke:#000000;stroke-width:0.8;"/>
      </defs>
      <g>
       <use style="stroke:#000000;stroke-width:0.8;" x="49.44" xlink:href="#m4db762ba2c" y="283.559062"/>
      </g>
     </g>
     <g id="text_1">
      <!-- −6 -->
      <defs>
       <path d="M 10.59375 35.5 
L 73.1875 35.5 
L 73.1875 27.203125 
L 10.59375 27.203125 
z
" id="DejaVuSans-8722"/>
       <path d="M 33.015625 40.375 
Q 26.375 40.375 22.484375 35.828125 
Q 18.609375 31.296875 18.609375 23.390625 
Q 18.609375 15.53125 22.484375 10.953125 
Q 26.375 6.390625 33.015625 6.390625 
Q 39.65625 6.390625 43.53125 10.953125 
Q 47.40625 15.53125 47.40625 23.390625 
Q 47.40625 31.296875 43.53125 35.828125 
Q 39.65625 40.375 33.015625 40.375 
z
M 52.59375 71.296875 
L 52.59375 62.3125 
Q 48.875 64.0625 45.09375 64.984375 
Q 41.3125 65.921875 37.59375 65.921875 
Q 27.828125 65.921875 22.671875 59.328125 
Q 17.53125 52.734375 16.796875 39.40625 
Q 19.671875 43.65625 24.015625 45.921875 
Q 28.375 48.1875 33.59375 48.1875 
Q 44.578125 48.1875 50.953125 41.515625 
Q 57.328125 34.859375 57.328125 23.390625 
Q 57.328125 12.15625 50.6875 5.359375 
Q 44.046875 -1.421875 33.015625 -1.421875 
Q 20.359375 -1.421875 13.671875 8.265625 
Q 6.984375 17.96875 6.984375 36.375 
Q 6.984375 53.65625 15.1875 63.9375 
Q 23.390625 74.21875 37.203125 74.21875 
Q 40.921875 74.21875 44.703125 73.484375 
Q 48.484375 72.75 52.59375 71.296875 
z
" id="DejaVuSans-54"/>
      </defs>
      <g transform="translate(40.594687 299.677187)scale(0.12 -0.12)">
       <use xlink:href="#DejaVuSans-8722"/>
       <use x="83.789062" xlink:href="#DejaVuSans-54"/>
      </g>
     </g>
    </g>
    <g id="xtick_2">
     <g id="line2d_2">
      <g>
       <use style="stroke:#000000;stroke-width:0.8;" x="119.19" xlink:href="#m4db762ba2c" y="283.559062"/>
      </g>
     </g>
     <g id="text_2">
      <!-- −3 -->
      <defs>
       <path d="M 40.578125 39.3125 
Q 47.65625 37.796875 51.625 33 
Q 55.609375 28.21875 55.609375 21.1875 
Q 55.609375 10.40625 48.1875 4.484375 
Q 40.765625 -1.421875 27.09375 -1.421875 
Q 22.515625 -1.421875 17.65625 -0.515625 
Q 12.796875 0.390625 7.625 2.203125 
L 7.625 11.71875 
Q 11.71875 9.328125 16.59375 8.109375 
Q 21.484375 6.890625 26.8125 6.890625 
Q 36.078125 6.890625 40.9375 10.546875 
Q 45.796875 14.203125 45.796875 21.1875 
Q 45.796875 27.640625 41.28125 31.265625 
Q 36.765625 34.90625 28.71875 34.90625 
L 20.21875 34.90625 
L 20.21875 43.015625 
L 29.109375 43.015625 
Q 36.375 43.015625 40.234375 45.921875 
Q 44.09375 48.828125 44.09375 54.296875 
Q 44.09375 59.90625 40.109375 62.90625 
Q 36.140625 65.921875 28.71875 65.921875 
Q 24.65625 65.921875 20.015625 65.03125 
Q 15.375 64.15625 9.8125 62.3125 
L 9.8125 71.09375 
Q 15.4375 72.65625 20.34375 73.4375 
Q 25.25 74.21875 29.59375 74.21875 
Q 40.828125 74.21875 47.359375 69.109375 
Q 53.90625 64.015625 53.90625 55.328125 
Q 53.90625 49.265625 50.4375 45.09375 
Q 46.96875 40.921875 40.578125 39.3125 
z
" id="DejaVuSans-51"/>
      </defs>
      <g transform="translate(110.344687 299.677187)scale(0.12 -0.12)">
       <use xlink:href="#DejaVuSans-8722"/>
       <use x="83.789062" xlink:href="#DejaVuSans-51"/>
      </g>
     </g>
    </g>
    <g id="xtick_3">
     <g id="line2d_3">
      <g>
       <use style="stroke:#000000;stroke-width:0.8;" x="188.94" xlink:href="#m4db762ba2c" y="283.559062"/>
      </g>
     </g>
     <g id="text_3">
      <!-- 0 -->
      <defs>
       <path d="M 31.78125 66.40625 
Q 24.171875 66.40625 20.328125 58.90625 
Q 16.5 51.421875 16.5 36.375 
Q 16.5 21.390625 20.328125 13.890625 
Q 24.171875 6.390625 31.78125 6.390625 
Q 39.453125 6.390625 43.28125 13.890625 
Q 47.125 21.390625 47.125 36.375 
Q 47.125 51.421875 43.28125 58.90625 
Q 39.453125 66.40625 31.78125 66.40625 
z
M 31.78125 74.21875 
Q 44.046875 74.21875 50.515625 64.515625 
Q 56.984375 54.828125 56.984375 36.375 
Q 56.984375 17.96875 50.515625 8.265625 
Q 44.046875 -1.421875 31.78125 -1.421875 
Q 19.53125 -1.421875 13.0625 8.265625 
Q 6.59375 17.96875 6.59375 36.375 
Q 6.59375 54.828125 13.0625 64.515625 
Q 19.53125 74.21875 31.78125 74.21875 
z
" id="DejaVuSans-48"/>
      </defs>
      <g transform="translate(185.1225 299.677187)scale(0.12 -0.12)">
       <use xlink:href="#DejaVuSans-48"/>
      </g>
     </g>
    </g>
    <g id="xtick_4">
     <g id="line2d_4">
      <g>
       <use style="stroke:#000000;stroke-width:0.8;" x="258.69" xlink:href="#m4db762ba2c" y="283.559062"/>
      </g>
     </g>
     <g id="text_4">
      <!-- 3 -->
      <g transform="translate(254.8725 299.677187)scale(0.12 -0.12)">
       <use xlink:href="#DejaVuSans-51"/>
      </g>
     </g>
    </g>
    <g id="xtick_5">
     <g id="line2d_5">
      <g>
       <use style="stroke:#000000;stroke-width:0.8;" x="328.44" xlink:href="#m4db762ba2c" y="283.559062"/>
      </g>
     </g>
     <g id="text_5">
      <!-- 6 -->
      <g transform="translate(324.6225 299.677187)scale(0.12 -0.12)">
       <use xlink:href="#DejaVuSans-54"/>
      </g>
     </g>
    </g>
    <g id="text_6">
     <!-- $x$ -->
     <defs>
      <path d="M 60.015625 54.6875 
L 34.90625 27.875 
L 50.296875 0 
L 39.984375 0 
L 28.421875 21.6875 
L 8.296875 0 
L -2.59375 0 
L 24.3125 28.8125 
L 10.015625 54.6875 
L 20.3125 54.6875 
L 30.8125 34.90625 
L 49.125 54.6875 
z
" id="DejaVuSans-Oblique-120"/>
     </defs>
     <g transform="translate(184.74 316.810625)scale(0.14 -0.14)">
      <use transform="translate(0 0.3125)" xlink:href="#DejaVuSans-Oblique-120"/>
     </g>
    </g>
   </g>
   <g id="matplotlib.axis_2">
    <g id="ytick_1">
     <g id="line2d_6">
      <defs>
       <path d="M 0 0 
L -3.5 0 
" id="m5f6c4361fe" style="stroke:#000000;stroke-width:0.8;"/>
      </defs>
      <g>
       <use style="stroke:#000000;stroke-width:0.8;" x="49.44" xlink:href="#m5f6c4361fe" y="283.559062"/>
      </g>
     </g>
     <g id="text_7">
      <!-- −6 -->
      <g transform="translate(24.749375 288.118125)scale(0.12 -0.12)">
       <use xlink:href="#DejaVuSans-8722"/>
       <use x="83.789062" xlink:href="#DejaVuSans-54"/>
      </g>
     </g>
    </g>
    <g id="ytick_2">
     <g id="line2d_7">
      <g>
       <use style="stroke:#000000;stroke-width:0.8;" x="49.44" xlink:href="#m5f6c4361fe" y="215.609062"/>
      </g>
     </g>
     <g id="text_8">
      <!-- −3 -->
      <g transform="translate(24.749375 220.168125)scale(0.12 -0.12)">
       <use xlink:href="#DejaVuSans-8722"/>
       <use x="83.789062" xlink:href="#DejaVuSans-51"/>
      </g>
     </g>
    </g>
    <g id="ytick_3">
     <g id="line2d_8">
      <g>
       <use style="stroke:#000000;stroke-width:0.8;" x="49.44" xlink:href="#m5f6c4361fe" y="147.659062"/>
      </g>
     </g>
     <g id="text_9">
      <!-- 0 -->
      <g transform="translate(34.805 152.218125)scale(0.12 -0.12)">
       <use xlink:href="#DejaVuSans-48"/>
      </g>
     </g>
    </g>
    <g id="ytick_4">
     <g id="line2d_9">
      <g>
       <use style="stroke:#000000;stroke-width:0.8;" x="49.44" xlink:href="#m5f6c4361fe" y="79.709062"/>
      </g>
     </g>
     <g id="text_10">
      <!-- 3 -->
      <g transform="translate(34.805 84.268125)scale(0.12 -0.12)">
       <use xlink:href="#DejaVuSans-51"/>
      </g>
     </g>
    </g>
    <g id="ytick_5">
     <g id="line2d_10">
      <g>
       <use style="stroke:#000000;stroke-width:0.8;" x="49.44" xlink:href="#m5f6c4361fe" y="11.759062"/>
      </g>
     </g>
     <g id="text_11">
      <!-- 6 -->
      <g transform="translate(34.805 16.318125)scale(0.12 -0.12)">
       <use xlink:href="#DejaVuSans-54"/>
      </g>
     </g>
    </g>
    <g id="text_12">
     <!-- $y$ -->
     <defs>
      <path d="M 24.8125 -5.078125 
Q 18.5625 -15.578125 14.625 -18.1875 
Q 10.6875 -20.796875 4.59375 -20.796875 
L -2.484375 -20.796875 
L -0.984375 -13.28125 
L 4.203125 -13.28125 
Q 7.953125 -13.28125 10.59375 -11.234375 
Q 13.234375 -9.1875 16.5 -3.21875 
L 19.28125 2 
L 7.171875 54.6875 
L 16.703125 54.6875 
L 25.78125 12.796875 
L 50.875 54.6875 
L 60.296875 54.6875 
z
" id="DejaVuSans-Oblique-121"/>
     </defs>
     <g transform="translate(17.809375 151.859062)rotate(-90)scale(0.14 -0.14)">
      <use transform="translate(0 0.3125)" xlink:href="#DejaVuSans-Oblique-121"/>
     </g>
    </g>
   </g>
   <g id="LineCollection_1">
    <path clip-path="url(#p5eaaaecd6f)" d="M 96.736129 223.763062 
L 96.87 224.445836 
L 97.090916 225.122062 
L 98.265 226.476091 
L 98.27704 226.481062 
L 99.66 226.827469 
L 101.055 226.674529 
L 101.543825 226.481062 
L 102.45 226.029975 
L 103.629927 225.122062 
L 103.845 224.90338 
L 104.686211 223.763062 
L 105.24 222.686602 
L 105.357668 222.404062 
L 105.620007 221.045062 
L 105.559791 219.686062 
L 105.24 218.694175 
L 105.04523 218.327062 
L 103.845 217.200777 
L 103.086222 216.968062 
L 102.45 216.836162 
L 101.574483 216.968062 
L 101.055 217.059599 
L 99.66 217.826611 
L 99.089535 218.327062 
L 98.265 219.192952 
L 97.925919 219.686062 
L 97.218119 221.045062 
L 96.87 222.11113 
L 96.79728 222.404062 
L 96.736129 223.763062 
" style="fill:none;stroke:#440154;stroke-width:1.5;"/>
    <path clip-path="url(#p5eaaaecd6f)" d="M 118.527758 78.350062 
L 119.19 79.695404 
L 119.199412 79.709062 
L 120.585 81.019258 
L 120.667816 81.068062 
L 121.98 81.650227 
L 123.375 81.917064 
L 124.77 81.852551 
L 126.165 81.475282 
L 127.009784 81.068062 
L 127.56 80.711274 
L 128.650338 79.709062 
L 128.955 79.264173 
L 129.444737 78.350062 
L 129.72014 76.991062 
L 129.526656 75.632062 
L 128.955 74.481043 
L 128.826088 74.273062 
L 127.56 73.100099 
L 127.285457 72.914062 
L 126.165 72.389587 
L 124.77 71.99874 
L 123.375 71.894654 
L 121.98 72.102875 
L 120.585 72.64852 
L 120.175374 72.914062 
L 119.19 73.863435 
L 118.890325 74.273062 
L 118.350182 75.632062 
L 118.237901 76.991062 
L 118.527758 78.350062 
" style="fill:none;stroke:#440154;stroke-width:1.5;"/>
    <path clip-path="url(#p5eaaaecd6f)" d="M 252.848992 101.453062 
L 253.11 102.428333 
L 253.229162 102.812062 
L 253.784763 104.171062 
L 254.412836 105.530062 
L 254.505 105.705393 
L 255.23887 106.889062 
L 255.9 107.914308 
L 256.167663 108.248062 
L 257.283616 109.607062 
L 257.295 109.620544 
L 258.69 110.863274 
L 258.87904 110.966062 
L 260.085 111.626045 
L 261.48 111.801888 
L 262.875 111.063882 
L 262.946591 110.966062 
L 263.682742 109.607062 
L 264.127679 108.248062 
L 264.27 107.379416 
L 264.321484 106.889062 
L 264.342801 105.530062 
L 264.27 104.499536 
L 264.240425 104.171062 
L 263.973458 102.812062 
L 263.585609 101.453062 
L 263.088744 100.094062 
L 262.875 99.627264 
L 262.359584 98.735062 
L 261.48 97.409893 
L 261.450268 97.376062 
L 260.085 96.022115 
L 260.077699 96.017062 
L 258.69 95.177849 
L 257.295 94.67534 
L 256.916099 94.658062 
L 255.9 94.617967 
L 255.739361 94.658062 
L 254.505 95.110338 
L 253.490877 96.017062 
L 253.11 96.626928 
L 252.809436 97.376062 
L 252.591611 98.735062 
L 252.62767 100.094062 
L 252.848992 101.453062 
" style="fill:none;stroke:#440154;stroke-width:1.5;"/>
    <path clip-path="url(#p5eaaaecd6f)" d="M 268.179276 192.506062 
L 268.455 193.334874 
L 268.693349 193.865062 
L 269.498173 195.224062 
L 269.85 195.697442 
L 270.882739 196.583062 
L 271.245 196.838447 
L 272.64 197.213664 
L 274.035 196.917784 
L 274.483796 196.583062 
L 275.43 195.645728 
L 275.670011 195.224062 
L 276.216003 193.865062 
L 276.551145 192.506062 
L 276.702731 191.147062 
L 276.696009 189.788062 
L 276.554228 188.429062 
L 276.29869 187.070062 
L 275.948823 185.711062 
L 275.522263 184.352062 
L 275.43 184.099961 
L 274.833264 182.993062 
L 274.043193 181.634062 
L 274.035 181.621 
L 272.64 180.369589 
L 272.155403 180.275062 
L 271.245 180.103279 
L 270.910636 180.275062 
L 269.85 180.915404 
L 269.355141 181.634062 
L 268.588349 182.993062 
L 268.455 183.292658 
L 268.146334 184.352062 
L 267.857879 185.711062 
L 267.681872 187.070062 
L 267.621697 188.429062 
L 267.681369 189.788062 
L 267.865501 191.147062 
L 268.179276 192.506062 
" style="fill:none;stroke:#440154;stroke-width:1.5;"/>
   </g>
   <g id="LineCollection_2">
    <path clip-path="url(#p5eaaaecd6f)" d="M 95.429967 223.763062 
L 95.475 224.261219 
L 95.587619 225.122062 
L 96.186698 226.481062 
L 96.87 227.305248 
L 97.703983 227.840062 
L 98.265 228.080575 
L 99.66 228.23932 
L 101.055 228.034575 
L 101.588726 227.840062 
L 102.45 227.46275 
L 103.845 226.567703 
L 103.948903 226.481062 
L 105.24 225.169185 
L 105.278768 225.122062 
L 106.134082 223.763062 
L 106.635 222.668673 
L 106.73891 222.404062 
L 107.029628 221.045062 
L 107.07349 219.686062 
L 106.836352 218.327062 
L 106.635 217.817837 
L 106.147921 216.968062 
L 105.24 216.006846 
L 104.531956 215.609062 
L 103.845 215.328344 
L 102.45 215.209873 
L 101.055 215.489901 
L 100.800767 215.609062 
L 99.66 216.202657 
L 98.677755 216.968062 
L 98.265 217.333688 
L 97.433794 218.327062 
L 96.87 219.118441 
L 96.551974 219.686062 
L 95.962781 221.045062 
L 95.56478 222.404062 
L 95.475 223.239001 
L 95.429967 223.763062 
" style="fill:none;stroke:#440154;stroke-width:1.5;"/>
    <path clip-path="url(#p5eaaaecd6f)" d="M 117.36511 79.709062 
L 117.795 80.450687 
L 118.261232 81.068062 
L 119.19 81.993681 
L 119.798984 82.427062 
L 120.585 82.880886 
L 121.98 83.38277 
L 123.375 83.599668 
L 124.77 83.549023 
L 126.165 83.246771 
L 127.56 82.707454 
L 128.073503 82.427062 
L 128.955 81.828417 
L 129.831762 81.068062 
L 130.35 80.458763 
L 130.879477 79.709062 
L 131.475233 78.350062 
L 131.689578 76.991062 
L 131.510024 75.632062 
L 130.92604 74.273062 
L 130.35 73.49138 
L 129.848607 72.914062 
L 128.955 72.197471 
L 127.960708 71.555062 
L 127.56 71.358731 
L 126.165 70.858538 
L 124.77 70.556064 
L 123.375 70.469604 
L 121.98 70.617429 
L 120.585 71.017672 
L 119.466037 71.555062 
L 119.19 71.733553 
L 117.908321 72.914062 
L 117.795 73.069183 
L 117.124376 74.273062 
L 116.71363 75.632062 
L 116.628984 76.991062 
L 116.851814 78.350062 
L 117.36511 79.709062 
" style="fill:none;stroke:#440154;stroke-width:1.5;"/>
    <path clip-path="url(#p5eaaaecd6f)" d="M 251.449017 102.812062 
L 251.715 103.548278 
L 251.964746 104.171062 
L 252.587083 105.530062 
L 253.11 106.590841 
L 253.276102 106.889062 
L 254.085752 108.248062 
L 254.505 108.930959 
L 254.984502 109.607062 
L 255.9 110.890022 
L 255.96533 110.966062 
L 257.139286 112.325062 
L 257.295 112.507265 
L 258.560283 113.684062 
L 258.69 113.807753 
L 260.085 114.739257 
L 260.968348 115.043062 
L 261.48 115.226022 
L 262.875 115.09737 
L 262.959369 115.043062 
L 264.27 113.993687 
L 264.457413 113.684062 
L 265.111059 112.325062 
L 265.572298 110.966062 
L 265.665 110.564276 
L 265.816148 109.607062 
L 265.935173 108.248062 
L 265.961088 106.889062 
L 265.89888 105.530062 
L 265.752635 104.171062 
L 265.665 103.661022 
L 265.48947 102.812062 
L 265.111277 101.453062 
L 264.646984 100.094062 
L 264.27 99.171546 
L 264.054668 98.735062 
L 263.272261 97.376062 
L 262.875 96.768162 
L 262.274276 96.017062 
L 261.48 95.12844 
L 260.948184 94.658062 
L 260.085 93.974637 
L 258.951804 93.299062 
L 258.69 93.159181 
L 257.295 92.691236 
L 255.9 92.498111 
L 254.505 92.626354 
L 253.11 93.137664 
L 252.861801 93.299062 
L 251.715 94.384818 
L 251.519125 94.658062 
L 250.913964 96.017062 
L 250.63606 97.376062 
L 250.603425 98.735062 
L 250.756121 100.094062 
L 251.049353 101.453062 
L 251.449017 102.812062 
" style="fill:none;stroke:#440154;stroke-width:1.5;"/>
    <path clip-path="url(#p5eaaaecd6f)" d="M 267.021537 193.865062 
L 267.06 193.970194 
L 267.627848 195.224062 
L 268.390717 196.583062 
L 268.455 196.677096 
L 269.604846 197.942062 
L 269.85 198.169702 
L 271.245 199.008687 
L 272.408889 199.301062 
L 272.64 199.350595 
L 273.075192 199.301062 
L 274.035 199.167568 
L 275.43 198.364906 
L 275.833297 197.942062 
L 276.825 196.610879 
L 276.839037 196.583062 
L 277.355989 195.224062 
L 277.711351 193.865062 
L 277.922667 192.506062 
L 278.006511 191.147062 
L 277.978472 189.788062 
L 277.853158 188.429062 
L 277.644198 187.070062 
L 277.364255 185.711062 
L 277.025047 184.352062 
L 276.825 183.657245 
L 276.571053 182.993062 
L 275.999137 181.634062 
L 275.43 180.356814 
L 275.377554 180.275062 
L 274.463853 178.916062 
L 274.035 178.28834 
L 273.196167 177.557062 
L 272.64 177.072761 
L 271.245 176.668323 
L 269.85 177.130448 
L 269.419178 177.557062 
L 268.455 178.632552 
L 268.300838 178.916062 
L 267.643971 180.275062 
L 267.08819 181.634062 
L 267.06 181.716362 
L 266.735328 182.993062 
L 266.464194 184.352062 
L 266.27171 185.711062 
L 266.161977 187.070062 
L 266.139431 188.429062 
L 266.208838 189.788062 
L 266.375304 191.147062 
L 266.644272 192.506062 
L 267.021537 193.865062 
" style="fill:none;stroke:#440154;stroke-width:1.5;"/>
   </g>
   <g id="LineCollection_3">
    <path clip-path="url(#p5eaaaecd6f)" d="M 93.856317 225.122062 
L 94.08 226.356452 
L 94.110703 226.481062 
L 94.786622 227.840062 
L 95.475 228.690651 
L 96.128405 229.199062 
L 96.87 229.610541 
L 98.265 229.980449 
L 99.66 230.005981 
L 101.055 229.752354 
L 102.45 229.271401 
L 102.595282 229.199062 
L 103.845 228.477347 
L 104.736387 227.840062 
L 105.24 227.415679 
L 106.179311 226.481062 
L 106.635 225.935352 
L 107.228868 225.122062 
L 108.03 223.763699 
L 108.030336 223.763062 
L 108.546465 222.404062 
L 108.879157 221.045062 
L 109.011895 219.686062 
L 108.924867 218.327062 
L 108.594117 216.968062 
L 108.03 215.693458 
L 107.979863 215.609062 
L 106.802348 214.250062 
L 106.635 214.104991 
L 105.24 213.33163 
L 103.845 212.996602 
L 102.45 213.037609 
L 101.055 213.405644 
L 99.66 214.061631 
L 99.384074 214.250062 
L 98.265 215.073374 
L 97.703104 215.609062 
L 96.87 216.477256 
L 96.490015 216.968062 
L 95.548892 218.327062 
L 95.475 218.453192 
L 94.879278 219.686062 
L 94.345791 221.045062 
L 94.08 221.999837 
L 93.985544 222.404062 
L 93.829323 223.763062 
L 93.856317 225.122062 
" style="fill:none;stroke:#440154;stroke-width:1.5;"/>
    <path clip-path="url(#p5eaaaecd6f)" d="M 114.765072 78.350062 
L 115.005 79.309113 
L 115.125888 79.709062 
L 115.756435 81.068062 
L 116.4 82.11077 
L 116.64333 82.427062 
L 117.795 83.640572 
L 117.975071 83.786062 
L 119.19 84.619652 
L 120.264304 85.145062 
L 120.585 85.282523 
L 121.98 85.654888 
L 123.375 85.815292 
L 124.77 85.77732 
L 126.165 85.553604 
L 127.56 85.155884 
L 127.586947 85.145062 
L 128.955 84.516508 
L 130.202637 83.786062 
L 130.35 83.683792 
L 131.745 82.520027 
L 131.841335 82.427062 
L 132.96535 81.068062 
L 133.14 80.779256 
L 133.713783 79.709062 
L 134.157578 78.350062 
L 134.304304 76.991062 
L 134.14391 75.632062 
L 133.667522 74.273062 
L 133.14 73.37993 
L 132.835057 72.914062 
L 131.745 71.743628 
L 131.545605 71.555062 
L 130.35 70.693244 
L 129.54025 70.196062 
L 128.955 69.908423 
L 127.56 69.356088 
L 126.165 68.947908 
L 125.544875 68.837062 
L 124.77 68.722748 
L 123.375 68.65872 
L 121.98 68.747242 
L 121.482198 68.837062 
L 120.585 69.035426 
L 119.19 69.557343 
L 118.000835 70.196062 
L 117.795 70.336638 
L 116.441473 71.555062 
L 116.4 71.6053 
L 115.536951 72.914062 
L 115.005 74.11133 
L 114.945604 74.273062 
L 114.674023 75.632062 
L 114.617722 76.991062 
L 114.765072 78.350062 
" style="fill:none;stroke:#440154;stroke-width:1.5;"/>
    <path clip-path="url(#p5eaaaecd6f)" d="M 248.613608 101.453062 
L 248.925 102.461087 
L 249.040898 102.812062 
L 249.56974 104.171062 
L 250.146381 105.530062 
L 250.32 105.905103 
L 250.810483 106.889062 
L 251.516234 108.248062 
L 251.715 108.614323 
L 252.301927 109.607062 
L 253.10957 110.966062 
L 253.11 110.966766 
L 254.025908 112.325062 
L 254.505 113.044599 
L 254.986024 113.684062 
L 255.9 114.925111 
L 256.001201 115.043062 
L 257.142304 116.402062 
L 257.295 116.589652 
L 258.44207 117.761062 
L 258.69 118.025943 
L 260.001915 119.120062 
L 260.085 119.193262 
L 261.48 120.012567 
L 262.875 120.382768 
L 264.27 120.119397 
L 265.47179 119.120062 
L 265.665 118.930676 
L 266.319919 117.761062 
L 266.939443 116.402062 
L 267.06 116.083312 
L 267.332848 115.043062 
L 267.616638 113.684062 
L 267.826531 112.325062 
L 267.965085 110.966062 
L 268.034386 109.607062 
L 268.036133 108.248062 
L 267.971705 106.889062 
L 267.842219 105.530062 
L 267.648573 104.171062 
L 267.391485 102.812062 
L 267.071519 101.453062 
L 267.06 101.413543 
L 266.615134 100.094062 
L 266.08825 98.735062 
L 265.665 97.778079 
L 265.457838 97.376062 
L 264.664434 96.017062 
L 264.27 95.409535 
L 263.697231 94.658062 
L 262.875 93.677493 
L 262.495774 93.299062 
L 261.48 92.378024 
L 260.88916 91.940062 
L 260.085 91.398283 
L 258.69 90.658317 
L 258.481281 90.581062 
L 257.295 90.183751 
L 255.9 89.913312 
L 254.505 89.855108 
L 253.11 90.032155 
L 251.715 90.472698 
L 251.499002 90.581062 
L 250.32 91.362513 
L 249.705025 91.940062 
L 248.925 92.99289 
L 248.747223 93.299062 
L 248.239648 94.658062 
L 247.986395 96.017062 
L 247.934497 97.376062 
L 248.042536 98.735062 
L 248.277681 100.094062 
L 248.613608 101.453062 
" style="fill:none;stroke:#440154;stroke-width:1.5;"/>
    <path clip-path="url(#p5eaaaecd6f)" d="M 264.238396 189.788062 
L 264.27 190.093723 
L 264.394802 191.147062 
L 264.641219 192.506062 
L 264.978149 193.865062 
L 265.411395 195.224062 
L 265.665 195.864425 
L 265.99999 196.583062 
L 266.763054 197.942062 
L 267.06 198.389133 
L 267.803866 199.301062 
L 268.455 199.987316 
L 269.296358 200.660062 
L 269.85 201.044578 
L 271.245 201.683958 
L 272.64 201.970814 
L 274.035 201.872124 
L 275.43 201.351128 
L 276.413964 200.660062 
L 276.825 200.311997 
L 277.623831 199.301062 
L 278.22 198.361718 
L 278.417707 197.942062 
L 278.917042 196.583062 
L 279.283078 195.224062 
L 279.528536 193.865062 
L 279.615 193.011992 
L 279.65563 192.506062 
L 279.688093 191.147062 
L 279.651397 189.788062 
L 279.615 189.286964 
L 279.538921 188.429062 
L 279.352042 187.070062 
L 279.108628 185.711062 
L 278.817259 184.352062 
L 278.485931 182.993062 
L 278.22 182.003987 
L 278.095808 181.634062 
L 277.604079 180.275062 
L 277.091531 178.916062 
L 276.825 178.233945 
L 276.482082 177.557062 
L 275.783855 176.198062 
L 275.43 175.51113 
L 274.951748 174.839062 
L 274.035 173.524884 
L 273.98586 173.480062 
L 272.64 172.214496 
L 272.42198 172.121062 
L 271.245 171.59527 
L 269.85 171.73224 
L 269.281006 172.121062 
L 268.455 172.725349 
L 267.90012 173.480062 
L 267.06 174.716819 
L 267.002215 174.839062 
L 266.397709 176.198062 
L 265.849277 177.557062 
L 265.665 178.060798 
L 265.418644 178.916062 
L 265.070271 180.275062 
L 264.771152 181.634062 
L 264.525005 182.993062 
L 264.33575 184.352062 
L 264.27 185.044061 
L 264.216444 185.711062 
L 264.162296 187.070062 
L 264.168105 188.429062 
L 264.238396 189.788062 
" style="fill:none;stroke:#440154;stroke-width:1.5;"/>
   </g>
   <g id="LineCollection_4">
    <path clip-path="url(#p5eaaaecd6f)" d="M 92.17553 227.840062 
L 92.685 229.090142 
L 92.743512 229.199062 
L 93.813334 230.558062 
L 94.08 230.807047 
L 95.475 231.698363 
L 96.064778 231.917062 
L 96.87 232.153533 
L 98.265 232.30751 
L 99.66 232.238057 
L 101.055 231.978602 
L 101.252773 231.917062 
L 102.45 231.496681 
L 103.845 230.849158 
L 104.355671 230.558062 
L 105.24 229.986408 
L 106.294136 229.199062 
L 106.635 228.907296 
L 107.742259 227.840062 
L 108.03 227.51812 
L 108.869152 226.481062 
L 109.425 225.670669 
L 109.770822 225.122062 
L 110.468411 223.763062 
L 110.82 222.881384 
L 110.996443 222.404062 
L 111.343653 221.045062 
L 111.53971 219.686062 
L 111.576107 218.327062 
L 111.443094 216.968062 
L 111.129457 215.609062 
L 110.82 214.76617 
L 110.589573 214.250062 
L 109.746915 212.891062 
L 109.425 212.487097 
L 108.425467 211.532062 
L 108.03 211.222695 
L 106.635 210.472327 
L 105.62407 210.173062 
L 105.24 210.07526 
L 103.845 209.983498 
L 102.45 210.14442 
L 102.352453 210.173062 
L 101.055 210.570229 
L 99.66 211.229198 
L 99.188852 211.532062 
L 98.265 212.154128 
L 97.394953 212.891062 
L 96.87 213.360773 
L 96.051962 214.250062 
L 95.475 214.919298 
L 94.973273 215.609062 
L 94.08 216.935244 
L 94.060999 216.968062 
L 93.366679 218.327062 
L 92.754247 219.686062 
L 92.685 219.875648 
L 92.315625 221.045062 
L 91.993013 222.404062 
L 91.793857 223.763062 
L 91.740006 225.122062 
L 91.857123 226.481062 
L 92.17553 227.840062 
" style="fill:none;stroke:#440154;stroke-width:1.5;"/>
    <path clip-path="url(#p5eaaaecd6f)" d="M 112.163579 78.350062 
L 112.215 78.635121 
L 112.440077 79.709062 
L 112.878623 81.068062 
L 113.462854 82.427062 
L 113.61 82.704528 
L 114.288467 83.786062 
L 115.005 84.754413 
L 115.354839 85.145062 
L 116.4 86.166733 
L 116.831005 86.504062 
L 117.795 87.180033 
L 119.069295 87.863062 
L 119.19 87.922059 
L 120.585 88.407633 
L 121.98 88.708063 
L 123.375 88.835578 
L 124.77 88.801631 
L 126.165 88.616954 
L 127.56 88.291609 
L 128.869377 87.863062 
L 128.955 87.832343 
L 130.35 87.197369 
L 131.621338 86.504062 
L 131.745 86.428582 
L 133.14 85.445994 
L 133.52006 85.145062 
L 134.535 84.219954 
L 134.966553 83.786062 
L 135.93 82.627899 
L 136.08373 82.427062 
L 136.907289 81.068062 
L 137.325 80.109461 
L 137.48736 79.709062 
L 137.813732 78.350062 
L 137.904151 76.991062 
L 137.750731 75.632062 
L 137.346313 74.273062 
L 137.325 74.229681 
L 136.641295 72.914062 
L 135.93 71.937412 
L 135.632 71.555062 
L 134.535 70.47295 
L 134.230349 70.196062 
L 133.14 69.398401 
L 132.292366 68.837062 
L 131.745 68.536053 
L 130.35 67.859897 
L 129.426337 67.478062 
L 128.955 67.312731 
L 127.56 66.917645 
L 126.165 66.623957 
L 124.77 66.440778 
L 123.375 66.37734 
L 121.98 66.442963 
L 120.585 66.647031 
L 119.19 66.998957 
L 117.877198 67.478062 
L 117.795 67.513857 
L 116.4 68.317929 
L 115.684605 68.837062 
L 115.005 69.440827 
L 114.305027 70.196062 
L 113.61 71.148271 
L 113.359204 71.555062 
L 112.734823 72.914062 
L 112.312819 74.273062 
L 112.215 74.849908 
L 112.100667 75.632062 
L 112.058182 76.991062 
L 112.163579 78.350062 
" style="fill:none;stroke:#440154;stroke-width:1.5;"/>
    <path clip-path="url(#p5eaaaecd6f)" d="M 244.598321 98.735062 
L 244.74 99.358218 
L 244.913278 100.094062 
L 245.316062 101.453062 
L 245.780675 102.812062 
L 246.135 103.740084 
L 246.306318 104.171062 
L 246.897619 105.530062 
L 247.516664 106.889062 
L 247.53 106.916601 
L 248.204945 108.248062 
L 248.903687 109.607062 
L 248.925 109.647105 
L 249.665308 110.966062 
L 250.32 112.136633 
L 250.432292 112.325062 
L 251.249735 113.684062 
L 251.715 114.467474 
L 252.082812 115.043062 
L 252.936541 116.402062 
L 253.11 116.682338 
L 253.836547 117.761062 
L 254.505 118.790953 
L 254.741548 119.120062 
L 255.684704 120.479062 
L 255.9 120.80183 
L 256.67886 121.838062 
L 257.295 122.706705 
L 257.698365 123.197062 
L 258.69 124.486463 
L 258.754693 124.556062 
L 259.932583 125.915062 
L 260.085 126.105719 
L 261.269403 127.274062 
L 261.48 127.503055 
L 262.875 128.579375 
L 263.011804 128.633062 
L 264.27 129.192388 
L 265.665 129.107196 
L 266.302702 128.633062 
L 267.06 128.015356 
L 267.501522 127.274062 
L 268.236973 125.915062 
L 268.455 125.4753 
L 268.758336 124.556062 
L 269.17023 123.197062 
L 269.537949 121.838062 
L 269.85 120.528718 
L 269.858962 120.479062 
L 270.081869 119.120062 
L 270.272089 117.761062 
L 270.428162 116.402062 
L 270.548696 115.043062 
L 270.632365 113.684062 
L 270.677901 112.325062 
L 270.684092 110.966062 
L 270.649773 109.607062 
L 270.573831 108.248062 
L 270.455194 106.889062 
L 270.292833 105.530062 
L 270.085759 104.171062 
L 269.85 102.905807 
L 269.83022 102.812062 
L 269.48312 101.453062 
L 269.083908 100.094062 
L 268.632022 98.735062 
L 268.455 98.268021 
L 268.073352 97.376062 
L 267.427722 96.017062 
L 267.06 95.317416 
L 266.667194 94.658062 
L 265.782489 93.299062 
L 265.665 93.135173 
L 264.689998 91.940062 
L 264.27 91.465419 
L 263.370682 90.581062 
L 262.875 90.131865 
L 261.707586 89.222062 
L 261.48 89.058616 
L 260.085 88.224198 
L 259.343073 87.863062 
L 258.69 87.571007 
L 257.295 87.096909 
L 255.9 86.767133 
L 254.505 86.58989 
L 253.11 86.574663 
L 251.715 86.732467 
L 250.32 87.076162 
L 248.925 87.620843 
L 248.467135 87.863062 
L 247.53 88.488801 
L 246.672965 89.222062 
L 246.135 89.834877 
L 245.591425 90.581062 
L 244.903411 91.940062 
L 244.74 92.449699 
L 244.502943 93.299062 
L 244.312032 94.658062 
L 244.282165 96.017062 
L 244.385354 97.376062 
L 244.598321 98.735062 
" style="fill:none;stroke:#440154;stroke-width:1.5;"/>
    <path clip-path="url(#p5eaaaecd6f)" d="M 262.634429 195.224062 
L 262.875 195.974455 
L 263.092464 196.583062 
L 263.674863 197.942062 
L 264.27 199.124527 
L 264.371107 199.301062 
L 265.275655 200.660062 
L 265.665 201.170166 
L 266.423295 202.019062 
L 267.06 202.646115 
L 267.967024 203.378062 
L 268.455 203.726916 
L 269.85 204.489724 
L 270.523087 204.737062 
L 271.245 204.973333 
L 272.64 205.190929 
L 274.035 205.153154 
L 275.43 204.840612 
L 275.669236 204.737062 
L 276.825 204.161877 
L 277.860356 203.378062 
L 278.22 203.060119 
L 279.086085 202.019062 
L 279.615 201.261447 
L 279.94371 200.660062 
L 280.554773 199.301062 
L 281.01 198.028406 
L 281.0352 197.942062 
L 281.341435 196.583062 
L 281.561727 195.224062 
L 281.703578 193.865062 
L 281.774204 192.506062 
L 281.780523 191.147062 
L 281.729154 189.788062 
L 281.626405 188.429062 
L 281.47828 187.070062 
L 281.290469 185.711062 
L 281.068354 184.352062 
L 281.01 184.039216 
L 280.780254 182.993062 
L 280.452918 181.634062 
L 280.103038 180.275062 
L 279.735678 178.916062 
L 279.615 178.4886 
L 279.300637 177.557062 
L 278.83172 176.198062 
L 278.359623 174.839062 
L 278.22 174.440732 
L 277.808792 173.480062 
L 277.233972 172.121062 
L 276.825 171.134663 
L 276.63011 170.762062 
L 275.936573 169.403062 
L 275.43 168.365972 
L 275.222124 168.044062 
L 274.385033 166.685062 
L 274.035 166.080911 
L 273.41272 165.326062 
L 272.64 164.308597 
L 272.205814 163.967062 
L 271.245 163.134031 
L 269.85 162.706054 
L 268.455 163.168341 
L 267.695694 163.967062 
L 267.06 164.657331 
L 266.687616 165.326062 
L 265.946137 166.685062 
L 265.665 167.211777 
L 265.33781 168.044062 
L 264.813774 169.403062 
L 264.308381 170.762062 
L 264.27 170.86758 
L 263.900447 172.121062 
L 263.516213 173.480062 
L 263.152143 174.839062 
L 262.875 175.941298 
L 262.819818 176.198062 
L 262.546312 177.557062 
L 262.297908 178.916062 
L 262.077993 180.275062 
L 261.890064 181.634062 
L 261.737739 182.993062 
L 261.624758 184.352062 
L 261.554996 185.711062 
L 261.532472 187.070062 
L 261.561353 188.429062 
L 261.645967 189.788062 
L 261.79081 191.147062 
L 262.000558 192.506062 
L 262.280076 193.865062 
L 262.634429 195.224062 
" style="fill:none;stroke:#440154;stroke-width:1.5;"/>
   </g>
   <g id="LineCollection_5">
    <path clip-path="url(#p5eaaaecd6f)" d="M 89.555946 229.199062 
L 89.895 230.182359 
L 90.054294 230.558062 
L 90.862546 231.917062 
L 91.29 232.460223 
L 92.124674 233.276062 
L 92.685 233.711001 
L 94.08 234.485898 
L 94.495806 234.635062 
L 95.475 234.926606 
L 96.87 235.136088 
L 98.265 235.162243 
L 99.66 235.028278 
L 101.055 234.754464 
L 101.467779 234.635062 
L 102.45 234.320845 
L 103.845 233.752921 
L 104.831152 233.276062 
L 105.24 233.056722 
L 106.635 232.197935 
L 107.044452 231.917062 
L 108.03 231.164462 
L 108.75914 230.558062 
L 109.425 229.937336 
L 110.16102 229.199062 
L 110.82 228.452159 
L 111.326917 227.840062 
L 112.215 226.616708 
L 112.308206 226.481062 
L 113.101937 225.122062 
L 113.61 224.091395 
L 113.763988 223.763062 
L 114.271522 222.404062 
L 114.65966 221.045062 
L 114.924778 219.686062 
L 115.005 218.886151 
L 115.058392 218.327062 
L 115.06428 216.968062 
L 115.005 216.283287 
L 114.939471 215.609062 
L 114.667463 214.250062 
L 114.24715 212.891062 
L 113.671524 211.532062 
L 113.61 211.415094 
L 112.847519 210.173062 
L 112.215 209.328816 
L 111.747159 208.814062 
L 110.82 207.942718 
L 110.151646 207.455062 
L 109.425 206.989008 
L 108.03 206.353286 
L 107.095481 206.096062 
L 106.635 205.981792 
L 105.24 205.849201 
L 103.845 205.925942 
L 102.991693 206.096062 
L 102.45 206.206264 
L 101.055 206.692848 
L 99.66 207.364801 
L 99.51599 207.455062 
L 98.265 208.256647 
L 97.550749 208.814062 
L 96.87 209.359874 
L 96.015906 210.173062 
L 95.475 210.705054 
L 94.75335 211.532062 
L 94.08 212.334063 
L 93.672697 212.891062 
L 92.724351 214.250062 
L 92.685 214.310577 
L 91.94328 215.609062 
L 91.29 216.832099 
L 91.225547 216.968062 
L 90.649809 218.327062 
L 90.137923 219.686062 
L 89.895 220.450794 
L 89.726855 221.045062 
L 89.4257 222.404062 
L 89.214329 223.763062 
L 89.105836 225.122062 
L 89.115025 226.481062 
L 89.258689 227.840062 
L 89.555946 229.199062 
" style="fill:none;stroke:#440256;stroke-width:1.5;"/>
    <path clip-path="url(#p5eaaaecd6f)" d="M 109.138644 79.709062 
L 109.425 81.067936 
L 109.42503 81.068062 
L 109.858006 82.427062 
L 110.393845 83.786062 
L 110.82 84.701769 
L 111.056808 85.145062 
L 111.88661 86.504062 
L 112.215 86.985422 
L 112.912325 87.863062 
L 113.61 88.662553 
L 114.188954 89.222062 
L 115.005 89.950384 
L 115.863037 90.581062 
L 116.4 90.949767 
L 117.795 91.713953 
L 118.336748 91.940062 
L 119.19 92.275996 
L 120.585 92.663971 
L 121.98 92.900839 
L 123.375 92.99689 
L 124.77 92.96181 
L 126.165 92.80473 
L 127.56 92.53426 
L 128.955 92.15853 
L 129.59864 91.940062 
L 130.35 91.670267 
L 131.745 91.073252 
L 132.746145 90.581062 
L 133.14 90.373843 
L 134.535 89.551751 
L 135.044276 89.222062 
L 135.93 88.599728 
L 136.897901 87.863062 
L 137.325 87.504382 
L 138.437376 86.504062 
L 138.72 86.217589 
L 139.717575 85.145062 
L 140.115 84.649392 
L 140.772822 83.786062 
L 141.51 82.616472 
L 141.624224 82.427062 
L 142.264103 81.068062 
L 142.711606 79.709062 
L 142.905 78.648959 
L 142.957415 78.350062 
L 142.996551 76.991062 
L 142.905 76.252197 
L 142.826325 75.632062 
L 142.433507 74.273062 
L 141.815644 72.914062 
L 141.51 72.427085 
L 140.946267 71.555062 
L 140.115 70.553655 
L 139.807078 70.196062 
L 138.72 69.171286 
L 138.349242 68.837062 
L 137.325 68.065766 
L 136.501238 67.478062 
L 135.93 67.130378 
L 134.535 66.336203 
L 134.120919 66.119062 
L 133.14 65.673492 
L 131.745 65.099724 
L 130.810437 64.760062 
L 130.35 64.613316 
L 128.955 64.23429 
L 127.56 63.925729 
L 126.165 63.694118 
L 124.77 63.546061 
L 123.375 63.488268 
L 121.98 63.527542 
L 120.585 63.67076 
L 119.19 63.924861 
L 117.795 64.296827 
L 116.494125 64.760062 
L 116.4 64.798684 
L 115.005 65.521341 
L 114.059343 66.119062 
L 113.61 66.45115 
L 112.44027 67.478062 
L 112.215 67.71374 
L 111.292964 68.837062 
L 110.82 69.541358 
L 110.436625 70.196062 
L 109.808286 71.555062 
L 109.425 72.664773 
L 109.348965 72.914062 
L 109.067528 74.273062 
L 108.912168 75.632062 
L 108.876356 76.991062 
L 108.953843 78.350062 
L 109.138644 79.709062 
" style="fill:none;stroke:#440256;stroke-width:1.5;"/>
    <path clip-path="url(#p5eaaaecd6f)" d="M 239.14648 94.658062 
L 239.533809 97.376062 
L 240.258584 100.094062 
L 241.241962 102.812062 
L 242.41121 105.530062 
L 244.74 110.23853 
L 248.125781 116.402062 
L 256.340886 131.351062 
L 258.262687 135.428062 
L 260.085 140.186134 
L 260.745422 142.223062 
L 261.361388 144.941062 
L 261.907481 149.018062 
L 261.990058 151.736062 
L 261.887928 154.454062 
L 261.470888 158.531062 
L 260.694338 163.967062 
L 258.69 176.481101 
L 258.165323 181.634062 
L 257.991403 185.711062 
L 258.041957 188.429062 
L 258.259509 191.147062 
L 258.69 193.932373 
L 259.370096 196.583062 
L 260.374874 199.301062 
L 261.48 201.454293 
L 262.763565 203.378062 
L 263.926737 204.737062 
L 265.371604 206.096062 
L 265.665 206.336376 
L 267.300534 207.455062 
L 268.455 208.05675 
L 270.563228 208.814062 
L 271.245 208.983844 
L 272.64 209.159808 
L 274.035 209.153765 
L 275.910572 208.814062 
L 276.825 208.516583 
L 278.747053 207.455062 
L 279.615 206.780113 
L 281.01 205.282231 
L 282.226656 203.378062 
L 282.846537 202.019062 
L 283.738888 199.301062 
L 284.018231 197.942062 
L 284.362394 195.224062 
L 284.477865 192.506062 
L 284.403624 189.788062 
L 284.014276 185.711062 
L 283.58876 182.993062 
L 282.405 177.403303 
L 280.530577 170.762062 
L 278.22 163.553769 
L 276.97171 159.890062 
L 274.035 149.827546 
L 273.553247 147.659062 
L 273.154891 144.941062 
L 272.939832 142.223062 
L 272.879632 138.146062 
L 273.118257 132.710062 
L 274.043851 117.761062 
L 274.035 113.487262 
L 273.823545 109.607062 
L 273.34491 105.530062 
L 272.64 101.80093 
L 272.180231 100.094062 
L 271.245 97.223404 
L 269.85 94.110282 
L 268.455 91.725774 
L 266.525786 89.222062 
L 265.217503 87.863062 
L 263.622855 86.504062 
L 261.48 85.059545 
L 258.69 83.746502 
L 255.9 82.958251 
L 253.11 82.590428 
L 251.715 82.570533 
L 250.32 82.663935 
L 248.925 82.874019 
L 247.53 83.204557 
L 245.825246 83.786062 
L 244.74 84.315308 
L 243.345 85.154486 
L 241.801008 86.504062 
L 240.555 88.166021 
L 240.002209 89.222062 
L 239.52013 90.581062 
L 239.16 92.828142 
L 239.122442 93.299062 
L 239.14648 94.658062 
L 239.14648 94.658062 
" style="fill:none;stroke:#440256;stroke-width:1.5;"/>
   </g>
   <g id="LineCollection_6">
    <path clip-path="url(#p5eaaaecd6f)" d="M 86.587255 231.917062 
L 87.105 233.179745 
L 87.151856 233.276062 
L 88.001205 234.635062 
L 88.5 235.271822 
L 89.195055 235.994062 
L 89.895 236.594855 
L 91.029206 237.353062 
L 91.29 237.500816 
L 92.685 238.091425 
L 94.08 238.487993 
L 95.475 238.712019 
L 95.475831 238.712062 
L 96.87 238.775178 
L 98.265 238.716186 
L 98.298469 238.712062 
L 99.66 238.529413 
L 101.055 238.234421 
L 102.45 237.843868 
L 103.845 237.368725 
L 103.883943 237.353062 
L 105.24 236.759763 
L 106.635 236.078634 
L 106.790918 235.994062 
L 108.03 235.261413 
L 109.013665 234.635062 
L 109.425 234.348428 
L 110.82 233.31109 
L 110.864349 233.276062 
L 112.215 232.105864 
L 112.422971 231.917062 
L 113.61 230.729484 
L 113.774493 230.558062 
L 114.950228 229.199062 
L 115.005 229.128025 
L 115.962014 227.840062 
L 116.4 227.17628 
L 116.844218 226.481062 
L 117.604029 225.122062 
L 117.795 224.721899 
L 118.239546 223.763062 
L 118.76768 222.404062 
L 119.19 221.066857 
L 119.196707 221.045062 
L 119.50964 219.686062 
L 119.725604 218.327062 
L 119.843667 216.968062 
L 119.862824 215.609062 
L 119.781995 214.250062 
L 119.600012 212.891062 
L 119.315617 211.532062 
L 119.19 211.084708 
L 118.91036 210.173062 
L 118.383233 208.814062 
L 117.795 207.568992 
L 117.735155 207.455062 
L 116.90819 206.096062 
L 116.4 205.369207 
L 115.896651 204.737062 
L 115.005 203.740478 
L 114.625101 203.378062 
L 113.61 202.500153 
L 112.93107 202.019062 
L 112.215 201.55237 
L 110.82 200.847404 
L 110.304435 200.660062 
L 109.425 200.362013 
L 108.03 200.073688 
L 106.635 199.967487 
L 105.24 200.036183 
L 103.845 200.273205 
L 102.494929 200.660062 
L 102.45 200.67295 
L 101.055 201.245352 
L 99.66 201.972668 
L 99.588164 202.019062 
L 98.265 202.876147 
L 97.609837 203.378062 
L 96.87 203.948357 
L 95.989243 204.737062 
L 95.475 205.201983 
L 94.611706 206.096062 
L 94.08 206.654016 
L 93.406048 207.455062 
L 92.685 208.326761 
L 92.325802 208.814062 
L 91.346333 210.173062 
L 91.29 210.254103 
L 90.493857 211.532062 
L 89.895 212.524961 
L 89.695722 212.891062 
L 88.993911 214.250062 
L 88.5 215.259018 
L 88.344676 215.609062 
L 87.787643 216.968062 
L 87.274283 218.327062 
L 87.105 218.830769 
L 86.843822 219.686062 
L 86.485153 221.045062 
L 86.187178 222.404062 
L 85.95786 223.763062 
L 85.805983 225.122062 
L 85.741249 226.481062 
L 85.774401 227.840062 
L 85.91736 229.199062 
L 86.183383 230.558062 
L 86.587255 231.917062 
" style="fill:none;stroke:#450457;stroke-width:1.5;"/>
    <path clip-path="url(#p5eaaaecd6f)" d="M 105.073282 79.709062 
L 105.24 80.840013 
L 105.277264 81.068062 
L 105.574985 82.427062 
L 105.944452 83.786062 
L 106.381532 85.145062 
L 106.635 85.833994 
L 106.910348 86.504062 
L 107.534662 87.863062 
L 108.03 88.843942 
L 108.245084 89.222062 
L 109.082299 90.581062 
L 109.425 91.100292 
L 110.055744 91.940062 
L 110.82 92.898263 
L 111.188154 93.299062 
L 112.215 94.360555 
L 112.55141 94.658062 
L 113.61 95.553336 
L 114.263314 96.017062 
L 115.005 96.523634 
L 116.4 97.303489 
L 116.563587 97.376062 
L 117.795 97.904688 
L 119.19 98.355539 
L 120.585 98.668294 
L 121.089116 98.735062 
L 121.98 98.849817 
L 123.375 98.913211 
L 124.77 98.868514 
L 126.055431 98.735062 
L 126.165 98.723438 
L 127.56 98.48011 
L 128.955 98.149107 
L 130.35 97.737313 
L 131.386381 97.376062 
L 131.745 97.247372 
L 133.14 96.675807 
L 134.535 96.039743 
L 134.580518 96.017062 
L 135.93 95.319538 
L 137.117713 94.658062 
L 137.325 94.537437 
L 138.72 93.672613 
L 139.291096 93.299062 
L 140.115 92.730839 
L 141.209823 91.940062 
L 141.51 91.709208 
L 142.905 90.592942 
L 142.91937 90.581062 
L 144.3 89.35012 
L 144.439622 89.222062 
L 145.695 87.962091 
L 145.791339 87.863062 
L 146.978068 86.504062 
L 147.09 86.358048 
L 148.000853 85.145062 
L 148.485 84.385686 
L 148.860833 83.786062 
L 149.552264 82.427062 
L 149.88 81.574198 
L 150.0717 81.068062 
L 150.41282 79.709062 
L 150.571819 78.350062 
L 150.543419 76.991062 
L 150.32278 75.632062 
L 149.905503 74.273062 
L 149.88 74.21753 
L 149.28275 72.914062 
L 148.485 71.607137 
L 148.453146 71.555062 
L 147.400989 70.196062 
L 147.09 69.865422 
L 146.116366 68.837062 
L 145.695 68.46146 
L 144.579216 67.478062 
L 144.3 67.266496 
L 142.905 66.227543 
L 142.755843 66.119062 
L 141.51 65.329603 
L 140.585618 64.760062 
L 140.115 64.50443 
L 138.72 63.774878 
L 137.972329 63.401062 
L 137.325 63.113161 
L 135.93 62.526503 
L 134.700296 62.042062 
L 134.535 61.983692 
L 133.14 61.530702 
L 131.745 61.11977 
L 130.35 60.755526 
L 130.025822 60.683062 
L 128.955 60.467273 
L 127.56 60.237077 
L 126.165 60.061971 
L 124.77 59.946465 
L 123.375 59.895154 
L 121.98 59.912712 
L 120.585 60.003884 
L 119.19 60.173482 
L 117.795 60.42637 
L 116.744585 60.683062 
L 116.4 60.777192 
L 115.005 61.26152 
L 113.61 61.855341 
L 113.242061 62.042062 
L 112.215 62.629238 
L 111.060359 63.401062 
L 110.82 63.583806 
L 109.475072 64.760062 
L 109.425 64.810453 
L 108.279968 66.119062 
L 108.03 66.452537 
L 107.346029 67.478062 
L 106.635 68.745536 
L 106.588922 68.837062 
L 106.027544 70.196062 
L 105.582827 71.555062 
L 105.248992 72.914062 
L 105.24 72.967592 
L 105.041586 74.273062 
L 104.925383 75.632062 
L 104.894887 76.991062 
L 104.945625 78.350062 
L 105.073282 79.709062 
" style="fill:none;stroke:#450457;stroke-width:1.5;"/>
    <path clip-path="url(#p5eaaaecd6f)" d="M 232.156059 96.017062 
L 233.012985 98.735062 
L 234.094973 101.453062 
L 236.006705 105.530062 
L 239.16 111.518228 
L 245.435659 123.197062 
L 248.067339 128.633062 
L 249.819159 132.710062 
L 251.333036 136.787062 
L 252.579074 140.864062 
L 253.529639 144.941062 
L 254.182023 149.018062 
L 254.546707 153.095062 
L 254.673002 157.172062 
L 254.590344 161.249062 
L 254.159432 168.044062 
L 253.140368 181.634062 
L 253.076424 185.711062 
L 253.257048 189.788062 
L 253.560027 192.506062 
L 254.041939 195.224062 
L 254.744979 197.942062 
L 255.9 201.058501 
L 257.054697 203.378062 
L 257.886147 204.737062 
L 258.839774 206.096062 
L 260.085 207.591986 
L 261.48 208.992305 
L 262.876692 210.173062 
L 264.908098 211.532062 
L 267.06 212.629432 
L 268.455 213.160788 
L 269.85 213.556327 
L 271.245 213.831193 
L 272.64 213.977956 
L 274.035 213.988817 
L 275.43 213.85558 
L 276.825 213.569627 
L 278.741416 212.891062 
L 279.615 212.464772 
L 281.07793 211.532062 
L 282.607743 210.173062 
L 283.8 208.782653 
L 285.195 206.520244 
L 285.987337 204.737062 
L 286.869198 202.019062 
L 287.420539 199.301062 
L 287.746641 196.583062 
L 287.879731 193.865062 
L 287.782869 189.788062 
L 287.411831 185.711062 
L 286.59 180.039399 
L 285.195 173.095774 
L 281.01 154.772683 
L 280.405341 151.736062 
L 279.615 146.569668 
L 279.232004 143.582062 
L 278.769731 138.146062 
L 278.497092 131.351062 
L 278.026609 113.684062 
L 277.524977 108.248062 
L 276.825 103.599631 
L 276.030227 100.094062 
L 275.249138 97.376062 
L 274.035 94.121455 
L 272.64 91.228088 
L 271.245 88.907153 
L 269.440342 86.504062 
L 268.220905 85.145062 
L 266.793555 83.786062 
L 265.090553 82.427062 
L 262.875 80.980928 
L 260.085 79.619896 
L 257.295 78.671169 
L 254.505 78.058877 
L 251.715 77.758687 
L 248.925 77.740999 
L 246.135 78.00331 
L 243.345 78.565144 
L 240.555 79.478591 
L 239.16 80.099677 
L 237.387273 81.068062 
L 235.538134 82.427062 
L 234.170052 83.786062 
L 233.157981 85.145062 
L 232.185 87.149292 
L 231.930028 87.863062 
L 231.627233 89.222062 
L 231.488274 90.581062 
L 231.490241 91.940062 
L 231.84026 94.658062 
L 232.156059 96.017062 
L 232.156059 96.017062 
" style="fill:none;stroke:#450457;stroke-width:1.5;"/>
   </g>
   <g id="LineCollection_7">
    <path clip-path="url(#p5eaaaecd6f)" d="M 82.632913 234.635062 
L 83.197847 235.994062 
L 84.315 237.903003 
L 85.71 239.545528 
L 87.105 240.715417 
L 88.5 241.586873 
L 89.895 242.209199 
L 91.782461 242.789062 
L 92.685 242.976811 
L 95.475 243.220684 
L 98.265 243.076059 
L 101.055 242.59434 
L 103.845 241.801586 
L 106.635 240.721043 
L 109.425 239.352217 
L 112.215 237.677183 
L 114.568846 235.994062 
L 116.4 234.477812 
L 119.026966 231.917062 
L 120.585 230.093196 
L 122.243297 227.840062 
L 123.845886 225.122062 
L 125.070503 222.404062 
L 125.941146 219.686062 
L 126.475909 216.968062 
L 126.687744 214.250062 
L 126.586347 211.532062 
L 126.165 208.765609 
L 125.437859 206.096062 
L 124.371134 203.378062 
L 122.929247 200.660062 
L 121.98 199.196721 
L 120.585 197.395303 
L 119.19 195.892993 
L 117.795 194.638469 
L 116.4 193.598499 
L 114.494348 192.506062 
L 113.61 192.092083 
L 112.215 191.600992 
L 110.82 191.27377 
L 109.425 191.106209 
L 107.500955 191.147062 
L 106.635 191.232506 
L 105.24 191.519416 
L 103.845 191.950903 
L 102.45 192.523978 
L 100.038216 193.865062 
L 99.66 194.094029 
L 98.099449 195.224062 
L 96.480677 196.583062 
L 95.047237 197.942062 
L 92.685 200.510278 
L 90.486866 203.378062 
L 88.66474 206.096062 
L 87.858752 207.455062 
L 86.383872 210.173062 
L 85.10546 212.891062 
L 84.010284 215.609062 
L 82.92 218.956382 
L 82.400695 221.045062 
L 81.893794 223.763062 
L 81.608912 226.481062 
L 81.596115 229.199062 
L 81.914264 231.917062 
L 82.632913 234.635062 
L 82.632913 234.635062 
" style="fill:none;stroke:#450559;stroke-width:1.5;"/>
    <path clip-path="url(#p5eaaaecd6f)" d="M 100.97669 85.145062 
L 101.738541 87.863062 
L 102.691639 90.581062 
L 103.869454 93.299062 
L 105.317438 96.017062 
L 107.099087 98.735062 
L 108.127272 100.094062 
L 109.425 101.587443 
L 110.82 102.961611 
L 112.274815 104.171062 
L 114.336498 105.530062 
L 115.005 105.915291 
L 117.29362 106.889062 
L 117.795 107.069472 
L 119.19 107.43833 
L 120.585 107.682005 
L 123.375 107.830916 
L 126.165 107.58514 
L 128.955 107.005966 
L 131.745 106.145433 
L 134.535 105.049473 
L 137.325 103.754383 
L 141.591152 101.453062 
L 145.976638 98.735062 
L 149.897362 96.017062 
L 154.065 92.759088 
L 156.855 90.278781 
L 159.20565 87.863062 
L 161.300924 85.145062 
L 162.435 83.056383 
L 162.724942 82.427062 
L 163.154455 81.068062 
L 163.379352 79.709062 
L 163.396732 78.350062 
L 163.20418 76.991062 
L 162.799749 75.632062 
L 162.187829 74.273062 
L 161.04 72.475609 
L 159.645 70.758901 
L 158.25 69.328049 
L 156.855 68.07962 
L 155.46 66.954736 
L 154.065 65.917416 
L 151.275 64.097149 
L 148.485 62.496716 
L 145.695 61.087337 
L 142.905 59.84693 
L 140.115 58.758166 
L 137.325 57.807173 
L 132.883412 56.606062 
L 128.955 55.880689 
L 126.165 55.550046 
L 123.375 55.400895 
L 120.585 55.460577 
L 117.795 55.757412 
L 115.005 56.320567 
L 113.61 56.721354 
L 110.82 57.837257 
L 109.425 58.590957 
L 108.03 59.480414 
L 106.509179 60.683062 
L 105.129687 62.042062 
L 103.845 63.634461 
L 102.33877 66.119062 
L 101.214234 68.837062 
L 100.812271 70.196062 
L 100.268612 72.914062 
L 100.011863 75.632062 
L 100.013581 78.350062 
L 100.246989 81.068062 
L 100.686842 83.786062 
L 100.97669 85.145062 
L 100.97669 85.145062 
" style="fill:none;stroke:#450559;stroke-width:1.5;"/>
    <path clip-path="url(#p5eaaaecd6f)" d="M 219.240957 91.940062 
L 220.233512 94.658062 
L 221.508819 97.376062 
L 223.815 101.553877 
L 227.045832 106.889062 
L 232.850482 116.402062 
L 235.91615 121.838062 
L 238.676645 127.274062 
L 240.555 131.477889 
L 242.102231 135.428062 
L 243.455036 139.505062 
L 244.556798 143.582062 
L 245.409875 147.659062 
L 246.016061 151.736062 
L 246.406802 155.813062 
L 246.604358 159.890062 
L 246.628258 165.326062 
L 246.362341 173.480062 
L 246.100613 181.634062 
L 246.16724 187.070062 
L 246.465915 191.147062 
L 246.828749 193.865062 
L 247.53 197.30226 
L 248.082788 199.301062 
L 249.046171 202.019062 
L 250.32 204.774696 
L 251.91013 207.455062 
L 253.968153 210.173062 
L 255.9 212.21379 
L 257.295 213.468759 
L 258.69 214.573861 
L 260.174289 215.609062 
L 262.875 217.144217 
L 265.665 218.348594 
L 268.455 219.175335 
L 271.388847 219.686062 
L 274.035 219.797234 
L 275.680917 219.686062 
L 276.825 219.527512 
L 278.22 219.220234 
L 280.788211 218.327062 
L 281.01 218.231512 
L 283.213227 216.968062 
L 283.8 216.557177 
L 285.195 215.388114 
L 286.59 213.897879 
L 288.253681 211.532062 
L 289.623743 208.814062 
L 290.59676 206.096062 
L 291.267182 203.378062 
L 291.720319 200.660062 
L 291.997784 197.942062 
L 292.135097 193.865062 
L 292.00179 189.788062 
L 291.663229 185.711062 
L 290.991586 180.275062 
L 290.116139 174.839062 
L 287.985 163.16552 
L 286.892117 157.172062 
L 285.437664 147.659062 
L 284.532418 139.505062 
L 284.022658 132.710062 
L 282.709794 112.325062 
L 282.062458 106.889062 
L 281.378726 102.812062 
L 280.462075 98.735062 
L 279.247878 94.658062 
L 278.22 91.909974 
L 276.825 88.909394 
L 275.43 86.434712 
L 273.59434 83.786062 
L 272.500986 82.427062 
L 271.245 81.048526 
L 269.85 79.708522 
L 267.06 77.513201 
L 265.665 76.601421 
L 262.875 75.09662 
L 260.085 73.93829 
L 256.664389 72.914062 
L 254.505 72.464058 
L 251.715 72.072664 
L 248.925 71.876296 
L 246.135 71.865799 
L 243.345 72.031331 
L 240.555 72.362321 
L 237.447278 72.914062 
L 233.58 73.932308 
L 230.79 74.901963 
L 228 76.111765 
L 225.21 77.660604 
L 223.815 78.606627 
L 222.42 79.732856 
L 221.025 81.183478 
L 220.100658 82.427062 
L 219.373715 83.786062 
L 218.89299 85.145062 
L 218.63241 86.504062 
L 218.561455 87.863062 
L 218.653867 89.222062 
L 218.886942 90.581062 
L 219.240957 91.940062 
L 219.240957 91.940062 
" style="fill:none;stroke:#450559;stroke-width:1.5;"/>
   </g>
   <g id="LineCollection_8">
    <path clip-path="url(#p5eaaaecd6f)" d="M 77.10987 235.994062 
L 77.491894 237.353062 
L 78.601718 240.071062 
L 79.386812 241.430062 
L 80.348655 242.789062 
L 81.573883 244.148062 
L 83.202388 245.507062 
L 85.474548 246.866062 
L 87.105 247.546748 
L 89.458879 248.225062 
L 91.29 248.538296 
L 94.08 248.721705 
L 96.87 248.612065 
L 99.813077 248.225062 
L 102.45 247.645972 
L 105.24 246.848576 
L 108.827123 245.507062 
L 112.215 243.941835 
L 115.005 242.423804 
L 117.795 240.688391 
L 120.606211 238.712062 
L 123.91902 235.994062 
L 126.747729 233.276062 
L 129.163843 230.558062 
L 131.209043 227.840062 
L 133.14 224.707072 
L 134.306249 222.404062 
L 135.391628 219.686062 
L 136.187101 216.968062 
L 136.701955 214.250062 
L 136.948391 211.532062 
L 136.936591 208.814062 
L 136.677754 206.096062 
L 136.184178 203.378062 
L 135.464752 200.660062 
L 134.533115 197.942062 
L 133.14 194.687235 
L 131.745 191.951157 
L 130.35 189.556347 
L 128.710959 187.070062 
L 126.165 183.731064 
L 124.271358 181.634062 
L 121.98 179.45899 
L 120.585 178.355503 
L 119.19 177.418741 
L 117.795 176.644148 
L 116.4 176.045056 
L 115.005 175.613389 
L 113.61 175.358621 
L 112.215 175.276374 
L 110.82 175.362529 
L 109.425 175.613213 
L 107.612689 176.198062 
L 106.635 176.582956 
L 104.804582 177.557062 
L 102.715346 178.916062 
L 102.45 179.093834 
L 99.66 181.388729 
L 96.676671 184.352062 
L 94.08 187.306528 
L 91.125954 191.147062 
L 88.349766 195.224062 
L 85.71 199.600871 
L 82.92 204.94701 
L 81.190304 208.814062 
L 79.615782 212.891062 
L 78.313043 216.968062 
L 77.301322 221.045062 
L 76.649842 225.122062 
L 76.422293 227.840062 
L 76.397593 230.558062 
L 76.612742 233.276062 
L 77.10987 235.994062 
L 77.10987 235.994062 
" style="fill:none;stroke:#460a5d;stroke-width:1.5;"/>
    <path clip-path="url(#p5eaaaecd6f)" d="M 94.026491 79.709062 
L 94.250792 82.427062 
L 94.8495 86.504062 
L 95.722119 90.581062 
L 96.87 94.68867 
L 98.267558 98.735062 
L 99.953275 102.812062 
L 101.929962 106.889062 
L 103.435466 109.607062 
L 105.124077 112.325062 
L 106.074651 113.684062 
L 107.085277 115.043062 
L 108.178384 116.402062 
L 109.425 117.797461 
L 110.82 119.162897 
L 112.416898 120.479062 
L 114.503525 121.838062 
L 115.005 122.130768 
L 116.4 122.759333 
L 117.795 123.212899 
L 119.19 123.516594 
L 120.585 123.6689 
L 121.98 123.683871 
L 123.375 123.574469 
L 126.165 123.034886 
L 128.955 122.152746 
L 132.873844 120.479062 
L 135.592543 119.120062 
L 138.72 117.426622 
L 145.695 113.3587 
L 156.855 106.79531 
L 162.435 103.741101 
L 168.015 100.979456 
L 172.2 99.176755 
L 176.385 97.684623 
L 179.175 96.905319 
L 181.965 96.34318 
L 184.755 96.036737 
L 187.619272 96.017062 
L 190.335 96.296397 
L 193.125 96.922421 
L 195.915 97.892776 
L 198.705 99.197306 
L 201.495 100.816833 
L 204.378109 102.812062 
L 207.075 104.933326 
L 210.743198 108.248062 
L 213.4276 110.966062 
L 215.879992 113.684062 
L 218.235 116.524533 
L 221.193789 120.479062 
L 223.902016 124.556062 
L 226.284976 128.633062 
L 228.361231 132.710062 
L 230.141508 136.787062 
L 231.637247 140.864062 
L 232.860585 144.941062 
L 233.826461 149.018062 
L 234.554092 153.095062 
L 235.066591 157.172062 
L 235.392974 161.249062 
L 235.595222 166.685062 
L 235.606908 173.480062 
L 235.602449 184.352062 
L 235.787363 188.429062 
L 236.185317 192.506062 
L 236.610181 195.224062 
L 237.194292 197.942062 
L 237.96774 200.660062 
L 239.16 203.830547 
L 240.217972 206.096062 
L 241.95 209.079937 
L 243.683747 211.532062 
L 246.135 214.374488 
L 248.925 217.020258 
L 251.715 219.197772 
L 253.11 220.15435 
L 255.9 221.833443 
L 258.69 223.238269 
L 261.48 224.393893 
L 264.27 225.321883 
L 267.06 226.011804 
L 269.85 226.485094 
L 272.64 226.701888 
L 275.43 226.665613 
L 278.22 226.340074 
L 281.01 225.671613 
L 282.605623 225.122062 
L 285.195 223.89472 
L 286.59 223.021399 
L 287.985 221.982094 
L 289.38 220.729575 
L 290.775 219.203166 
L 292.399615 216.968062 
L 293.895865 214.250062 
L 295.026951 211.532062 
L 295.856175 208.814062 
L 296.481275 206.096062 
L 297.067295 202.019062 
L 297.353285 197.942062 
L 297.39389 193.865062 
L 297.239055 189.788062 
L 296.805843 184.352062 
L 296.002738 177.557062 
L 294.394226 166.685062 
L 292.380278 153.095062 
L 291.072496 142.223062 
L 290.095275 131.351062 
L 288.518393 112.325062 
L 287.847308 106.889062 
L 286.927774 101.453062 
L 286.024219 97.376062 
L 284.883759 93.299062 
L 283.425685 89.222062 
L 282.239066 86.504062 
L 280.827565 83.786062 
L 279.138409 81.068062 
L 277.111404 78.350062 
L 275.43 76.453474 
L 273.14465 74.273062 
L 271.245 72.734338 
L 268.455 70.860593 
L 265.665 69.339404 
L 262.875 68.113282 
L 260.085 67.129692 
L 256.275344 66.119062 
L 254.505 65.768644 
L 250.32 65.177773 
L 246.135 64.879747 
L 241.95 64.840301 
L 237.765 65.023144 
L 232.185 65.546266 
L 226.605 66.315751 
L 218.235 67.809157 
L 207.075 69.901774 
L 201.495 70.664113 
L 197.31 70.927878 
L 194.52 70.898401 
L 191.73 70.675828 
L 188.758967 70.196062 
L 186.15 69.639777 
L 181.965 68.394604 
L 177.78 66.864448 
L 170.805 63.95575 
L 163.289296 60.683062 
L 152.67 56.41474 
L 145.695 54.011383 
L 141.51 52.780752 
L 137.325 51.732224 
L 133.14 50.880394 
L 128.955 50.268721 
L 124.77 49.916496 
L 121.98 49.857135 
L 119.19 49.961254 
L 116.4 50.249506 
L 113.61 50.743227 
L 110.82 51.487427 
L 108.03 52.535026 
L 105.24 53.994564 
L 103.400394 55.247062 
L 101.768503 56.606062 
L 100.415142 57.965062 
L 99.273954 59.324062 
L 98.265 60.733452 
L 96.77139 63.401062 
L 95.664335 66.119062 
L 94.886768 68.837062 
L 94.363682 71.555062 
L 94.060719 74.273062 
L 93.961009 76.991062 
L 94.026491 79.709062 
L 94.026491 79.709062 
" style="fill:none;stroke:#460a5d;stroke-width:1.5;"/>
   </g>
   <g id="LineCollection_9">
    <path clip-path="url(#p5eaaaecd6f)" d="M 70.227509 235.994062 
L 70.678712 238.712062 
L 71.40158 241.430062 
L 71.881663 242.789062 
L 73.165929 245.507062 
L 74.55 247.608446 
L 75.945 249.256095 
L 77.34 250.565831 
L 78.735 251.629021 
L 80.13 252.510133 
L 82.92 253.820696 
L 85.71 254.677081 
L 88.5 255.195386 
L 91.29 255.426065 
L 94.08 255.425363 
L 96.87 255.223731 
L 99.66 254.837678 
L 103.845 253.951465 
L 106.635 253.174415 
L 110.82 251.755054 
L 115.005 250.043642 
L 118.854414 248.225062 
L 123.375 245.766489 
L 126.165 244.085096 
L 130.35 241.289314 
L 134.535 238.135114 
L 137.325 235.815458 
L 140.115 233.275323 
L 142.905 230.45268 
L 145.695 227.262505 
L 147.380562 225.122062 
L 149.267061 222.404062 
L 151.275 218.936766 
L 152.245991 216.968062 
L 153.339033 214.250062 
L 154.164358 211.532062 
L 154.73486 208.814062 
L 155.048101 206.096062 
L 155.11981 203.378062 
L 154.967224 200.660062 
L 154.609166 197.942062 
L 154.065 195.219468 
L 152.981144 191.147062 
L 151.275 186.041442 
L 149.121842 180.275062 
L 146.612242 173.480062 
L 145.292533 169.403062 
L 144.230677 165.326062 
L 143.716788 162.608062 
L 143.394918 159.890062 
L 143.29706 157.172062 
L 143.454219 154.454062 
L 143.895821 151.736062 
L 144.647965 149.018062 
L 145.732465 146.300062 
L 147.169347 143.582062 
L 148.979917 140.864062 
L 151.275 138.049136 
L 154.065 135.215367 
L 156.994103 132.710062 
L 159.645 130.769941 
L 162.435 128.997557 
L 165.644904 127.274062 
L 168.72534 125.915062 
L 170.805 125.152534 
L 173.595 124.331643 
L 176.385 123.746533 
L 179.175 123.39764 
L 181.965 123.297742 
L 184.755 123.459368 
L 187.545 123.894952 
L 190.335 124.618102 
L 193.125 125.65748 
L 195.915 127.03545 
L 198.473986 128.633062 
L 200.307161 129.992062 
L 202.89 132.259419 
L 204.637932 134.069062 
L 206.887395 136.787062 
L 208.47 139.035649 
L 209.865 141.31201 
L 211.26 143.952416 
L 212.655 147.107861 
L 213.833183 150.377062 
L 214.626884 153.095062 
L 215.553601 157.172062 
L 216.194059 161.249062 
L 216.610114 165.326062 
L 216.892053 170.762062 
L 216.994262 178.916062 
L 217.126804 185.711062 
L 217.394125 189.788062 
L 217.922879 193.865062 
L 218.470324 196.583062 
L 219.20848 199.301062 
L 220.172213 202.019062 
L 221.391924 204.737062 
L 222.893291 207.455062 
L 224.70518 210.173062 
L 226.855183 212.891062 
L 229.395 215.632556 
L 232.283741 218.327062 
L 235.644795 221.045062 
L 239.529518 223.763062 
L 244.063646 226.481062 
L 247.53 228.270489 
L 251.715 230.148941 
L 254.505 231.230319 
L 258.69 232.605938 
L 262.875 233.680595 
L 267.06 234.440237 
L 269.85 234.757483 
L 272.64 234.906827 
L 275.43 234.881183 
L 278.420057 234.635062 
L 281.01 234.206555 
L 283.8 233.502388 
L 286.59 232.483498 
L 287.985 231.847823 
L 290.775 230.223401 
L 292.19867 229.199062 
L 293.785027 227.840062 
L 295.138068 226.481062 
L 296.355 225.062303 
L 298.200529 222.404062 
L 299.677633 219.686062 
L 300.839905 216.968062 
L 301.935 213.607859 
L 302.737791 210.173062 
L 303.390778 206.096062 
L 303.752776 202.019062 
L 303.902091 197.942062 
L 303.834709 192.506062 
L 303.535605 187.070062 
L 302.915975 180.275062 
L 301.794524 170.762062 
L 299.145 149.759483 
L 298.187259 140.864062 
L 296.85117 125.915062 
L 295.713319 113.684062 
L 294.892702 106.889062 
L 294.026791 101.453062 
L 293.22436 97.376062 
L 292.17 93.009293 
L 290.775 88.429061 
L 289.38 84.724218 
L 287.703226 81.068062 
L 286.219836 78.350062 
L 284.484594 75.632062 
L 282.405 72.858468 
L 280.000835 70.196062 
L 278.22 68.499313 
L 275.283021 66.119062 
L 272.64 64.346911 
L 269.85 62.77351 
L 267.06 61.455748 
L 264.27 60.352792 
L 261.103708 59.324062 
L 257.295 58.360507 
L 253.11 57.577658 
L 248.925 57.038183 
L 244.74 56.692242 
L 239.16 56.488897 
L 232.185 56.527219 
L 223.815 56.831948 
L 209.865 57.363545 
L 202.89 57.363461 
L 197.31 57.130778 
L 191.73 56.639458 
L 186.15 55.908432 
L 180.57 54.913876 
L 174.99 53.707391 
L 168.015 51.995062 
L 145.695 46.265632 
L 140.115 45.090585 
L 134.535 44.12697 
L 128.955 43.447166 
L 124.77 43.153731 
L 120.585 43.095354 
L 116.4 43.319906 
L 113.61 43.651703 
L 109.80901 44.375062 
L 108.03 44.852177 
L 105.24 45.784329 
L 102.30421 47.093062 
L 99.66 48.625516 
L 97.991791 49.811062 
L 96.370671 51.170062 
L 94.983239 52.529062 
L 93.781791 53.888062 
L 92.685 55.312962 
L 91.022757 57.965062 
L 89.69799 60.683062 
L 88.5 63.980463 
L 87.919945 66.119062 
L 87.357508 68.837062 
L 86.974348 71.555062 
L 86.69123 75.632062 
L 86.689194 79.709062 
L 86.923247 83.786062 
L 87.366518 87.863062 
L 88.22123 93.299062 
L 89.326706 98.735062 
L 90.620957 104.171062 
L 92.790039 112.325062 
L 96.151208 124.556062 
L 97.442562 129.992062 
L 98.265 134.420256 
L 98.779352 138.146062 
L 99.042578 142.223062 
L 99.027365 144.941062 
L 98.845665 147.659062 
L 98.485165 150.377062 
L 97.646864 154.454062 
L 96.448386 158.531062 
L 94.960517 162.608062 
L 92.685 167.902841 
L 91.29 170.909404 
L 88.734086 176.198062 
L 85.71 182.293318 
L 79.015999 196.583062 
L 77.298718 200.660062 
L 74.737736 207.455062 
L 73.40256 211.532062 
L 72.246889 215.609062 
L 71.289113 219.686062 
L 70.5583 223.763062 
L 70.220277 226.481062 
L 69.97677 230.558062 
L 70.009777 233.276062 
L 70.227509 235.994062 
L 70.227509 235.994062 
" style="fill:none;stroke:#471063;stroke-width:1.5;"/>
   </g>
   <g id="LineCollection_10">
    <path clip-path="url(#p5eaaaecd6f)" d="M 63.285319 244.148062 
L 64.093286 246.866062 
L 65.187091 249.584062 
L 66.664457 252.302062 
L 67.575 253.662142 
L 68.97 255.376812 
L 70.365 256.800368 
L 71.76 257.998897 
L 73.276777 259.097062 
L 75.945 260.616083 
L 78.832001 261.815062 
L 81.525 262.598471 
L 84.417629 263.174062 
L 87.105 263.478222 
L 89.895 263.607039 
L 92.685 263.568382 
L 96.87 263.239068 
L 101.055 262.608275 
L 105.24 261.73955 
L 110.057552 260.456062 
L 115.005 258.86395 
L 120.585 256.773937 
L 124.795687 255.020062 
L 131.745 251.794023 
L 137.325 248.965042 
L 143.731719 245.507062 
L 168.015 231.681136 
L 172.2 229.585912 
L 176.385 227.75749 
L 179.90032 226.481062 
L 181.965 225.835926 
L 184.995869 225.122062 
L 187.545 224.677595 
L 190.335 224.403526 
L 193.125 224.335491 
L 195.915 224.461795 
L 198.705 224.771021 
L 202.89 225.524293 
L 207.075 226.574188 
L 211.269778 227.840062 
L 216.84 229.730661 
L 241.95 238.73786 
L 248.925 240.799931 
L 254.505 242.199143 
L 258.69 243.072252 
L 262.875 243.765645 
L 267.06 244.265058 
L 271.245 244.529766 
L 275.43 244.537988 
L 279.615 244.247338 
L 282.405 243.851264 
L 285.195 243.274886 
L 287.985 242.493234 
L 290.865389 241.430062 
L 293.699612 240.071062 
L 296.355 238.454516 
L 297.872074 237.353062 
L 299.490624 235.994062 
L 300.902872 234.635062 
L 302.148311 233.276062 
L 304.228416 230.558062 
L 305.110482 229.199062 
L 306.614269 226.481062 
L 307.84037 223.763062 
L 308.91 220.836405 
L 309.98722 216.968062 
L 310.565666 214.250062 
L 311.196905 210.173062 
L 311.60594 206.096062 
L 311.818181 202.019062 
L 311.862705 196.583062 
L 311.697322 191.147062 
L 311.254089 184.352062 
L 310.37826 174.839062 
L 308.880881 161.249062 
L 307.269863 146.300062 
L 305.993623 132.710062 
L 304.061891 112.325062 
L 303.028449 104.171062 
L 301.902203 97.376062 
L 300.738021 91.940062 
L 299.667089 87.863062 
L 298.388444 83.786062 
L 296.850798 79.709062 
L 295.649468 76.991062 
L 294.281671 74.273062 
L 292.717291 71.555062 
L 290.775 68.63004 
L 288.831866 66.119062 
L 286.395939 63.401062 
L 283.497929 60.683062 
L 281.01 58.701703 
L 277.93428 56.606062 
L 275.43 55.146085 
L 272.64 53.740697 
L 269.85 52.528184 
L 265.665 51.028536 
L 261.385478 49.811062 
L 257.295 48.905548 
L 253.11 48.179409 
L 247.53 47.481649 
L 241.95 47.015729 
L 234.975 46.685892 
L 225.21 46.479465 
L 208.47 46.16868 
L 200.1 45.757516 
L 191.73 45.080053 
L 184.755 44.263129 
L 177.78 43.250512 
L 166.62 41.300371 
L 141.51 36.703653 
L 134.535 35.750818 
L 128.955 35.204144 
L 123.375 34.905278 
L 119.19 34.888931 
L 115.005 35.088715 
L 110.82 35.54107 
L 106.635 36.287839 
L 103.845 37.001848 
L 101.055 37.901135 
L 98.265 39.029531 
L 95.475 40.44384 
L 92.685 42.212242 
L 91.29 43.250938 
L 89.895 44.419234 
L 88.5 45.744719 
L 86.132903 48.452062 
L 85.132858 49.811062 
L 83.431641 52.529062 
L 82.059859 55.247062 
L 80.953252 57.965062 
L 80.058795 60.683062 
L 79.071639 64.760062 
L 78.596444 67.478062 
L 78.130389 71.555062 
L 77.897496 75.632062 
L 77.863008 79.709062 
L 78.069375 85.145062 
L 78.498229 90.581062 
L 79.273515 97.376062 
L 80.798682 108.248062 
L 82.478846 120.479062 
L 83.177726 127.274062 
L 83.532563 132.710062 
L 83.644297 138.146062 
L 83.478311 143.582062 
L 83.15341 147.659062 
L 82.462127 153.095062 
L 81.525 158.21931 
L 80.874975 161.249062 
L 79.498101 166.685062 
L 77.494389 173.480062 
L 72.981213 187.070062 
L 68.043752 202.019062 
L 66.18 208.364036 
L 64.680407 214.250062 
L 63.39 220.503109 
L 62.695255 225.122062 
L 62.287785 229.199062 
L 62.12075 233.276062 
L 62.248129 237.353062 
L 62.526603 240.071062 
L 62.983303 242.789062 
L 63.285319 244.148062 
L 63.285319 244.148062 
" style="fill:none;stroke:#481b6d;stroke-width:1.5;"/>
   </g>
   <g id="LineCollection_11">
    <path clip-path="url(#p5eaaaecd6f)" d="M 53.475685 246.866062 
L 54.05964 249.584062 
L 55.02 252.871541 
L 55.836968 255.020062 
L 57.122074 257.738062 
L 58.761247 260.456062 
L 59.749207 261.815062 
L 60.869747 263.174062 
L 62.155813 264.533062 
L 63.649579 265.892062 
L 66.18 267.782674 
L 68.97 269.409864 
L 71.76 270.665645 
L 74.55 271.628852 
L 77.34 272.345896 
L 80.13 272.860863 
L 82.92 273.193271 
L 87.105 273.414663 
L 91.29 273.347296 
L 95.475 273.035971 
L 99.66 272.513413 
L 105.24 271.530025 
L 109.425 270.60611 
L 115.005 269.171681 
L 121.524122 267.251062 
L 129.71814 264.533062 
L 142.905 259.738873 
L 158.25 254.169171 
L 166.62 251.466561 
L 172.2 249.910475 
L 177.78 248.602421 
L 183.36 247.582203 
L 187.545 247.028664 
L 193.125 246.565385 
L 197.31 246.428981 
L 201.495 246.467562 
L 207.075 246.771041 
L 212.655 247.312079 
L 219.274454 248.225062 
L 225.21 249.200699 
L 254.505 254.390603 
L 261.48 255.242723 
L 267.06 255.683238 
L 272.64 255.861262 
L 276.825 255.782619 
L 281.01 255.48892 
L 285.195 254.945319 
L 289.38 254.088885 
L 292.17 253.322833 
L 295.142471 252.302062 
L 298.285181 250.943062 
L 300.858888 249.584062 
L 303.33 248.023596 
L 306.12 245.887172 
L 308.023784 244.148062 
L 310.305 241.6884 
L 311.7 239.924667 
L 313.441776 237.353062 
L 314.986486 234.635062 
L 316.282917 231.917062 
L 317.37506 229.199062 
L 318.685517 225.122062 
L 319.67027 221.045062 
L 320.403686 216.968062 
L 320.920573 212.891062 
L 321.344079 207.455062 
L 321.511313 202.019062 
L 321.44275 195.224062 
L 321.137534 188.429062 
L 320.453724 178.916062 
L 319.329491 166.685062 
L 316.263623 134.069062 
L 314.394389 113.684062 
L 313.278174 104.171062 
L 312.265142 97.376062 
L 311.272047 91.940062 
L 310.060901 86.504062 
L 308.565881 81.068062 
L 307.215995 76.991062 
L 305.620975 72.914062 
L 303.733164 68.837062 
L 301.935 65.522519 
L 299.729194 62.042062 
L 297.74699 59.324062 
L 294.96 56.056534 
L 292.17 53.270657 
L 289.38 50.874388 
L 286.079328 48.452062 
L 283.8 46.9911 
L 281.01 45.413837 
L 278.22 44.027721 
L 274.035 42.258353 
L 269.85 40.797704 
L 265.665 39.595532 
L 261.48 38.606188 
L 255.9 37.559872 
L 250.32 36.777982 
L 243.345 36.059302 
L 234.975 35.482332 
L 222.42 34.895515 
L 204.285 34.039342 
L 194.52 33.328098 
L 186.15 32.531658 
L 176.385 31.379518 
L 163.83 29.632779 
L 145.695 27.040323 
L 137.325 26.040977 
L 129.522557 25.349062 
L 124.77 25.098017 
L 119.19 25.003632 
L 113.61 25.175858 
L 109.425 25.522867 
L 105.24 26.096897 
L 101.055 26.928982 
L 96.87 28.081868 
L 93.194485 29.426062 
L 90.211049 30.785062 
L 87.728105 32.144062 
L 85.591369 33.503062 
L 82.92 35.523302 
L 80.63915 37.580062 
L 78.735 39.60189 
L 77.068074 41.657062 
L 75.207451 44.375062 
L 73.654276 47.093062 
L 72.356496 49.811062 
L 71.270023 52.529062 
L 70.35741 55.247062 
L 69.289035 59.324062 
L 68.501558 63.401062 
L 67.946682 67.478062 
L 67.575 71.677372 
L 67.357621 76.991062 
L 67.356097 82.427062 
L 67.588959 89.222062 
L 68.212464 98.735062 
L 69.795557 120.479062 
L 70.091438 128.633062 
L 70.099648 135.428062 
L 69.847518 142.223062 
L 69.436958 147.659062 
L 68.659004 154.454062 
L 67.833315 159.890062 
L 66.573039 166.685062 
L 64.771755 174.839062 
L 62.770051 182.993062 
L 56.415 208.139518 
L 54.852777 215.609062 
L 53.706749 222.404062 
L 53.190769 226.481062 
L 52.736078 231.917062 
L 52.608595 235.994062 
L 52.704784 240.071062 
L 53.065684 244.148062 
L 53.475685 246.866062 
L 53.475685 246.866062 
" style="fill:none;stroke:#472c7a;stroke-width:1.5;"/>
   </g>
   <g id="LineCollection_12">
    <path clip-path="url(#p5eaaaecd6f)" d="M 49.44 270.448552 
L 50.118485 271.328062 
L 50.835 272.198941 
L 51.261006 272.687062 
L 52.23 273.730751 
L 52.541251 274.046062 
L 53.625 275.080495 
L 53.987451 275.405062 
L 55.02 276.278093 
L 55.634358 276.764062 
L 56.415 277.348243 
L 57.525154 278.123062 
L 57.81 278.311477 
L 59.205 279.170974 
L 59.749238 279.482062 
L 60.6 279.943849 
L 61.995 280.643507 
L 62.422067 280.841062 
L 63.39 281.267008 
L 64.785 281.829974 
L 65.789631 282.200062 
L 66.18 282.337088 
L 67.575 282.782943 
L 68.97 283.18505 
L 70.365 283.545206 
L 70.425137 283.559062 
" style="fill:none;stroke:#404588;stroke-width:1.5;"/>
    <path clip-path="url(#p5eaaaecd6f)" d="M 103.139759 283.559062 
L 109.425 282.435242 
L 116.4 280.953399 
L 123.375 279.278416 
L 135.93 275.97229 
L 156.855 270.439581 
L 165.225 268.506943 
L 172.2 267.112997 
L 177.78 266.171589 
L 184.755 265.240833 
L 190.335 264.710468 
L 197.31 264.307456 
L 202.89 264.190541 
L 209.865 264.285696 
L 216.84 264.613989 
L 225.21 265.241237 
L 236.37 266.340635 
L 254.505 268.157952 
L 262.875 268.750171 
L 269.85 268.995023 
L 275.43 268.97651 
L 281.01 268.716788 
L 285.195 268.323319 
L 289.38 267.732582 
L 293.565 266.911667 
L 297.75 265.816918 
L 301.935 264.385577 
L 304.810518 263.174062 
L 307.544844 261.815062 
L 310.305 260.198547 
L 313.095 258.272192 
L 315.43956 256.379062 
L 317.28 254.680414 
L 319.516316 252.302062 
L 321.694408 249.584062 
L 323.537907 246.866062 
L 325.118171 244.148062 
L 326.474766 241.430062 
L 327.641993 238.712062 
L 328.44 236.596983 
L 328.44 236.596983 
" style="fill:none;stroke:#404588;stroke-width:1.5;"/>
    <path clip-path="url(#p5eaaaecd6f)" d="M 328.44 135.764846 
L 326.364256 112.325062 
L 325.305825 102.812062 
L 324.173042 94.658062 
L 322.86 87.196096 
L 321.517037 81.068062 
L 320.451219 76.991062 
L 319.226784 72.914062 
L 317.81268 68.837062 
L 316.174435 64.760062 
L 314.49 61.129823 
L 312.81497 57.965062 
L 311.198435 55.247062 
L 308.91 51.847921 
L 307.372513 49.811062 
L 304.725 46.695304 
L 301.935 43.843628 
L 299.145 41.352185 
L 296.049353 38.939062 
L 293.565 37.229125 
L 290.775 35.513348 
L 287.041723 33.503062 
L 283.8 31.989473 
L 279.615 30.308544 
L 275.43 28.882112 
L 271.245 27.672079 
L 265.665 26.342262 
L 260.085 25.274797 
L 253.11 24.242867 
L 246.135 23.461623 
L 237.765 22.751392 
L 226.605 22.048359 
L 198.705 20.381837 
L 186.15 19.347653 
L 173.595 18.080316 
L 151.275 15.537055 
L 138.72 14.25519 
L 130.35 13.620148 
L 123.375 13.295833 
L 117.795 13.220356 
L 112.215 13.351186 
L 106.635 13.731315 
L 102.45 14.207691 
L 98.265 14.886448 
L 93.908372 15.836062 
L 89.895 16.98301 
L 87.105 17.959047 
L 84.315 19.100805 
L 81.525 20.437966 
L 78.735 22.004392 
L 75.734776 23.990062 
L 73.155 26.013695 
L 70.899115 28.067062 
L 68.97 30.085381 
L 67.241058 32.144062 
L 65.267471 34.862062 
L 63.39 37.909722 
L 61.995 40.570801 
L 60.327558 44.375062 
L 58.889682 48.452062 
L 57.745099 52.529062 
L 56.855253 56.606062 
L 56.165802 60.683062 
L 55.517642 66.119062 
L 55.1111 71.555062 
L 54.906301 76.991062 
L 54.861632 83.786062 
L 55.060883 93.299062 
L 56.015133 124.556062 
L 55.94069 132.710062 
L 55.61869 140.864062 
L 55.135227 147.659062 
L 54.306845 155.813062 
L 53.203266 163.967062 
L 51.864906 172.121062 
L 50.078097 181.634062 
L 49.44 184.791166 
L 49.44 184.791166 
" style="fill:none;stroke:#404588;stroke-width:1.5;"/>
   </g>
   <g id="LineCollection_13">
    <path clip-path="url(#p5eaaaecd6f)" d="M 65.2582 11.759062 
L 64.785 12.099273 
L 63.427689 13.118062 
L 63.39 13.147457 
L 61.995 14.282255 
L 61.765225 14.477062 
L 60.6 15.504071 
L 60.238292 15.836062 
L 59.205 16.822546 
L 58.830014 17.195062 
L 57.81 18.249641 
L 57.52682 18.554062 
L 56.415 19.798689 
L 56.316669 19.913062 
L 55.195342 21.272062 
L 55.02 21.493633 
L 54.153079 22.631062 
L 53.625 23.353919 
L 53.177119 23.990062 
L 52.260606 25.349062 
L 52.23 25.396478 
L 51.413568 26.708062 
L 50.835 27.679762 
L 50.612479 28.067062 
L 49.866245 29.426062 
L 49.44 30.238882 
" style="fill:none;stroke:#2f6c8e;stroke-width:1.5;"/>
    <path clip-path="url(#p5eaaaecd6f)" d="M 180.251329 283.559062 
L 180.57 283.522503 
L 181.965 283.370273 
L 183.36 283.226116 
L 184.755 283.090017 
L 186.15 282.961952 
L 187.545 282.841888 
L 188.94 282.729784 
L 190.335 282.625592 
L 191.73 282.529251 
L 193.125 282.440697 
L 194.52 282.359854 
L 195.915 282.28664 
L 197.31 282.220963 
L 197.810028 282.200062 
L 198.705 282.161453 
L 200.1 282.108816 
L 201.495 282.063644 
L 202.89 282.025808 
L 204.285 281.995172 
L 205.68 281.971591 
L 207.075 281.954913 
L 208.47 281.944977 
L 209.865 281.941614 
L 211.26 281.944648 
L 212.655 281.953895 
L 214.05 281.969162 
L 215.445 281.990249 
L 216.84 282.01695 
L 218.235 282.049047 
L 219.63 282.086318 
L 221.025 282.128531 
L 222.42 282.175448 
L 223.08786 282.200062 
L 223.815 282.225958 
L 225.21 282.279741 
L 226.605 282.337342 
L 228 282.398498 
L 229.395 282.462941 
L 230.79 282.530396 
L 232.185 282.600579 
L 233.58 282.6732 
L 234.975 282.74796 
L 236.37 282.824553 
L 237.765 282.902666 
L 239.16 282.981978 
L 240.555 283.06216 
L 241.95 283.142877 
L 243.345 283.223785 
L 244.74 283.304532 
L 246.135 283.38476 
L 247.53 283.464102 
L 248.925 283.542184 
L 249.232769 283.559062 
" style="fill:none;stroke:#2f6c8e;stroke-width:1.5;"/>
    <path clip-path="url(#p5eaaaecd6f)" d="M 286.893767 283.559062 
L 287.985 283.448346 
L 289.38 283.291148 
L 290.775 283.117678 
L 292.17 282.927301 
L 293.565 282.719369 
L 294.96 282.493228 
L 296.355 282.248211 
L 296.608791 282.200062 
L 297.75 281.976542 
L 299.145 281.682389 
L 300.54 281.366614 
L 301.935 281.028486 
L 302.658697 280.841062 
L 303.33 280.661487 
L 304.725 280.263614 
L 306.12 279.840306 
L 307.231629 279.482062 
L 307.515 279.387688 
L 308.91 278.895035 
L 310.305 278.373557 
L 310.938934 278.123062 
L 311.7 277.812117 
L 313.095 277.210492 
L 314.07696 276.764062 
L 314.49 276.569803 
L 315.885 275.878979 
L 316.79498 275.405062 
L 317.28 275.143608 
L 318.675 274.353601 
L 319.192469 274.046062 
L 320.07 273.505944 
L 321.33896 272.687062 
L 321.465 272.602781 
L 322.86 271.625686 
L 323.266028 271.328062 
L 324.255 270.576417 
L 325.019225 269.969062 
L 325.65 269.448979 
L 326.623813 268.610062 
L 327.045 268.233387 
L 328.097087 267.251062 
L 328.44 266.918465 
" style="fill:none;stroke:#2f6c8e;stroke-width:1.5;"/>
    <path clip-path="url(#p5eaaaecd6f)" d="M 328.44 54.307089 
L 328.249006 53.888062 
L 327.608685 52.529062 
L 327.045 51.369339 
L 326.945174 51.170062 
L 326.241449 49.811062 
L 325.65 48.703295 
L 325.511741 48.452062 
L 324.739191 47.093062 
L 324.255 46.267059 
L 323.932933 45.734062 
L 323.085816 44.375062 
L 322.86 44.023974 
L 322.191679 43.016062 
L 321.465 41.952483 
L 321.256877 41.657062 
L 320.269556 40.298062 
L 320.07 40.031665 
L 319.226023 38.939062 
L 318.675 38.246632 
L 318.127923 37.580062 
L 317.28 36.5772 
L 316.969389 36.221062 
L 315.885 35.014097 
L 315.744074 34.862062 
L 314.49 33.548628 
L 314.445107 33.503062 
L 313.095 32.172644 
L 313.065066 32.144062 
L 311.7 30.878528 
L 311.595938 30.785062 
L 310.305 29.659165 
L 310.029086 29.426062 
L 308.91 28.50792 
L 308.355209 28.067062 
L 307.515 27.418617 
L 306.564306 26.708062 
L 306.12 26.385508 
L 304.725 25.405079 
L 304.642557 25.349062 
L 303.33 24.482813 
L 302.558663 23.990062 
L 301.935 23.603028 
L 300.54 22.765627 
L 300.307924 22.631062 
L 299.145 21.97601 
L 297.853388 21.272062 
L 297.75 21.217315 
L 296.355 20.504716 
L 295.157273 19.913062 
L 294.96 19.818377 
L 293.565 19.172871 
L 292.181446 18.554062 
L 292.17 18.549088 
L 290.775 17.965367 
L 289.38 17.401681 
L 288.849185 17.195062 
L 287.985 16.868217 
L 286.59 16.359835 
L 285.195 15.869556 
L 285.095845 15.836062 
L 283.8 15.410757 
L 282.405 14.969723 
L 281.01 14.544952 
L 280.777813 14.477062 
L 279.615 14.146711 
L 278.22 13.765546 
L 276.825 13.398897 
L 275.713129 13.118062 
L 275.43 13.048578 
L 274.035 12.720309 
L 272.64 12.404903 
L 271.245 12.10195 
L 269.85 11.811037 
L 269.589772 11.759062 
" style="fill:none;stroke:#2f6c8e;stroke-width:1.5;"/>
   </g>
   <g id="LineCollection_14">
    <path clip-path="url(#p5eaaaecd6f)" d="M 328.44 20.515576 
L 327.852781 19.913062 
L 327.045 19.105899 
L 326.477213 18.554062 
L 325.65 17.771034 
L 325.024344 17.195062 
L 324.255 16.50521 
L 323.487582 15.836062 
L 322.86 15.303011 
L 321.859887 14.477062 
L 321.465 14.159357 
L 320.133744 13.118062 
L 320.07 13.069484 
L 318.675 12.036913 
L 318.288713 11.759062 
" style="fill:none;stroke:#21a685;stroke-width:1.5;"/>
   </g>
   <g id="LineCollection_15"/>
   <g id="line2d_11">
    <defs>
     <path d="M -3 0 
L 3 0 
M 0 3 
L 0 -3 
" id="m515897a5cc" style="stroke:#ff0000;"/>
    </defs>
    <g clip-path="url(#p5eaaaecd6f)">
     <use style="fill:#ff0000;stroke:#ff0000;" x="258.689472" xlink:href="#m515897a5cc" y="102.355273"/>
    </g>
   </g>
   <g id="patch_3">
    <path d="M 49.44 283.559062 
L 49.44 11.759062 
" style="fill:none;stroke:#000000;stroke-linecap:square;stroke-linejoin:miter;stroke-width:0.8;"/>
   </g>
   <g id="patch_4">
    <path d="M 328.44 283.559062 
L 328.44 11.759062 
" style="fill:none;stroke:#000000;stroke-linecap:square;stroke-linejoin:miter;stroke-width:0.8;"/>
   </g>
   <g id="patch_5">
    <path d="M 49.44 283.559062 
L 328.44 283.559062 
" style="fill:none;stroke:#000000;stroke-linecap:square;stroke-linejoin:miter;stroke-width:0.8;"/>
   </g>
   <g id="patch_6">
    <path d="M 49.44 11.759062 
L 328.44 11.759062 
" style="fill:none;stroke:#000000;stroke-linecap:square;stroke-linejoin:miter;stroke-width:0.8;"/>
   </g>
  </g>
 </g>
 <defs>
  <clipPath id="p5eaaaecd6f">
   <rect height="271.8" width="279" x="49.44" y="11.759062"/>
  </clipPath>
 </defs>
</svg>
