<?xml version="1.0" encoding="utf-8" standalone="no"?>
<!DOCTYPE svg PUBLIC "-//W3C//DTD SVG 1.1//EN"
  "http://www.w3.org/Graphics/SVG/1.1/DTD/svg11.dtd">
<!-- Created with matplotlib (https://matplotlib.org/) -->
<svg height="326.922187pt" version="1.1" viewBox="0 0 339.4575 326.922187" width="339.4575pt" xmlns="http://www.w3.org/2000/svg" xmlns:xlink="http://www.w3.org/1999/xlink">
 <defs>
  <style type="text/css">
*{stroke-linecap:butt;stroke-linejoin:round;white-space:pre;}
  </style>
 </defs>
 <g id="figure_1">
  <g id="patch_1">
   <path d="M 0 326.922187 
L 339.4575 326.922187 
L 339.4575 0 
L 0 0 
z
" style="fill:#ffffff;"/>
  </g>
  <g id="axes_1">
   <g id="patch_2">
    <path d="M 49.44 283.559062 
L 328.44 283.559062 
L 328.44 11.759062 
L 49.44 11.759062 
z
" style="fill:#ffffff;"/>
   </g>
   <g id="matplotlib.axis_1">
    <g id="xtick_1">
     <g id="line2d_1">
      <defs>
       <path d="M 0 0 
L 0 3.5 
" id="mc3c303248a" style="stroke:#000000;stroke-width:0.8;"/>
      </defs>
      <g>
       <use style="stroke:#000000;stroke-width:0.8;" x="49.44" xlink:href="#mc3c303248a" y="283.559062"/>
      </g>
     </g>
     <g id="text_1">
      <!-- −2 -->
      <defs>
       <path d="M 10.59375 35.5 
L 73.1875 35.5 
L 73.1875 27.203125 
L 10.59375 27.203125 
z
" id="DejaVuSans-8722"/>
       <path d="M 19.1875 8.296875 
L 53.609375 8.296875 
L 53.609375 0 
L 7.328125 0 
L 7.328125 8.296875 
Q 12.9375 14.109375 22.625 23.890625 
Q 32.328125 33.6875 34.8125 36.53125 
Q 39.546875 41.84375 41.421875 45.53125 
Q 43.3125 49.21875 43.3125 52.78125 
Q 43.3125 58.59375 39.234375 62.25 
Q 35.15625 65.921875 28.609375 65.921875 
Q 23.96875 65.921875 18.8125 64.3125 
Q 13.671875 62.703125 7.8125 59.421875 
L 7.8125 69.390625 
Q 13.765625 71.78125 18.9375 73 
Q 24.125 74.21875 28.421875 74.21875 
Q 39.75 74.21875 46.484375 68.546875 
Q 53.21875 62.890625 53.21875 53.421875 
Q 53.21875 48.921875 51.53125 44.890625 
Q 49.859375 40.875 45.40625 35.40625 
Q 44.1875 33.984375 37.640625 27.21875 
Q 31.109375 20.453125 19.1875 8.296875 
z
" id="DejaVuSans-50"/>
      </defs>
      <g transform="translate(40.594687 299.677187)scale(0.12 -0.12)">
       <use xlink:href="#DejaVuSans-8722"/>
       <use x="83.789062" xlink:href="#DejaVuSans-50"/>
      </g>
     </g>
    </g>
    <g id="xtick_2">
     <g id="line2d_2">
      <g>
       <use style="stroke:#000000;stroke-width:0.8;" x="119.19" xlink:href="#mc3c303248a" y="283.559062"/>
      </g>
     </g>
     <g id="text_2">
      <!-- −1 -->
      <defs>
       <path d="M 12.40625 8.296875 
L 28.515625 8.296875 
L 28.515625 63.921875 
L 10.984375 60.40625 
L 10.984375 69.390625 
L 28.421875 72.90625 
L 38.28125 72.90625 
L 38.28125 8.296875 
L 54.390625 8.296875 
L 54.390625 0 
L 12.40625 0 
z
" id="DejaVuSans-49"/>
      </defs>
      <g transform="translate(110.344687 299.677187)scale(0.12 -0.12)">
       <use xlink:href="#DejaVuSans-8722"/>
       <use x="83.789062" xlink:href="#DejaVuSans-49"/>
      </g>
     </g>
    </g>
    <g id="xtick_3">
     <g id="line2d_3">
      <g>
       <use style="stroke:#000000;stroke-width:0.8;" x="188.94" xlink:href="#mc3c303248a" y="283.559062"/>
      </g>
     </g>
     <g id="text_3">
      <!-- 0 -->
      <defs>
       <path d="M 31.78125 66.40625 
Q 24.171875 66.40625 20.328125 58.90625 
Q 16.5 51.421875 16.5 36.375 
Q 16.5 21.390625 20.328125 13.890625 
Q 24.171875 6.390625 31.78125 6.390625 
Q 39.453125 6.390625 43.28125 13.890625 
Q 47.125 21.390625 47.125 36.375 
Q 47.125 51.421875 43.28125 58.90625 
Q 39.453125 66.40625 31.78125 66.40625 
z
M 31.78125 74.21875 
Q 44.046875 74.21875 50.515625 64.515625 
Q 56.984375 54.828125 56.984375 36.375 
Q 56.984375 17.96875 50.515625 8.265625 
Q 44.046875 -1.421875 31.78125 -1.421875 
Q 19.53125 -1.421875 13.0625 8.265625 
Q 6.59375 17.96875 6.59375 36.375 
Q 6.59375 54.828125 13.0625 64.515625 
Q 19.53125 74.21875 31.78125 74.21875 
z
" id="DejaVuSans-48"/>
      </defs>
      <g transform="translate(185.1225 299.677187)scale(0.12 -0.12)">
       <use xlink:href="#DejaVuSans-48"/>
      </g>
     </g>
    </g>
    <g id="xtick_4">
     <g id="line2d_4">
      <g>
       <use style="stroke:#000000;stroke-width:0.8;" x="258.69" xlink:href="#mc3c303248a" y="283.559062"/>
      </g>
     </g>
     <g id="text_4">
      <!-- 1 -->
      <g transform="translate(254.8725 299.677187)scale(0.12 -0.12)">
       <use xlink:href="#DejaVuSans-49"/>
      </g>
     </g>
    </g>
    <g id="xtick_5">
     <g id="line2d_5">
      <g>
       <use style="stroke:#000000;stroke-width:0.8;" x="328.44" xlink:href="#mc3c303248a" y="283.559062"/>
      </g>
     </g>
     <g id="text_5">
      <!-- 2 -->
      <g transform="translate(324.6225 299.677187)scale(0.12 -0.12)">
       <use xlink:href="#DejaVuSans-50"/>
      </g>
     </g>
    </g>
    <g id="text_6">
     <!-- $x$ -->
     <defs>
      <path d="M 60.015625 54.6875 
L 34.90625 27.875 
L 50.296875 0 
L 39.984375 0 
L 28.421875 21.6875 
L 8.296875 0 
L -2.59375 0 
L 24.3125 28.8125 
L 10.015625 54.6875 
L 20.3125 54.6875 
L 30.8125 34.90625 
L 49.125 54.6875 
z
" id="DejaVuSans-Oblique-120"/>
     </defs>
     <g transform="translate(184.74 316.810625)scale(0.14 -0.14)">
      <use transform="translate(0 0.3125)" xlink:href="#DejaVuSans-Oblique-120"/>
     </g>
    </g>
   </g>
   <g id="matplotlib.axis_2">
    <g id="ytick_1">
     <g id="line2d_6">
      <defs>
       <path d="M 0 0 
L -3.5 0 
" id="m7857b43087" style="stroke:#000000;stroke-width:0.8;"/>
      </defs>
      <g>
       <use style="stroke:#000000;stroke-width:0.8;" x="49.44" xlink:href="#m7857b43087" y="283.559062"/>
      </g>
     </g>
     <g id="text_7">
      <!-- −1 -->
      <g transform="translate(24.749375 288.118125)scale(0.12 -0.12)">
       <use xlink:href="#DejaVuSans-8722"/>
       <use x="83.789062" xlink:href="#DejaVuSans-49"/>
      </g>
     </g>
    </g>
    <g id="ytick_2">
     <g id="line2d_7">
      <g>
       <use style="stroke:#000000;stroke-width:0.8;" x="49.44" xlink:href="#m7857b43087" y="215.609062"/>
      </g>
     </g>
     <g id="text_8">
      <!-- 0 -->
      <g transform="translate(34.805 220.168125)scale(0.12 -0.12)">
       <use xlink:href="#DejaVuSans-48"/>
      </g>
     </g>
    </g>
    <g id="ytick_3">
     <g id="line2d_8">
      <g>
       <use style="stroke:#000000;stroke-width:0.8;" x="49.44" xlink:href="#m7857b43087" y="147.659062"/>
      </g>
     </g>
     <g id="text_9">
      <!-- 1 -->
      <g transform="translate(34.805 152.218125)scale(0.12 -0.12)">
       <use xlink:href="#DejaVuSans-49"/>
      </g>
     </g>
    </g>
    <g id="ytick_4">
     <g id="line2d_9">
      <g>
       <use style="stroke:#000000;stroke-width:0.8;" x="49.44" xlink:href="#m7857b43087" y="79.709062"/>
      </g>
     </g>
     <g id="text_10">
      <!-- 2 -->
      <g transform="translate(34.805 84.268125)scale(0.12 -0.12)">
       <use xlink:href="#DejaVuSans-50"/>
      </g>
     </g>
    </g>
    <g id="ytick_5">
     <g id="line2d_10">
      <g>
       <use style="stroke:#000000;stroke-width:0.8;" x="49.44" xlink:href="#m7857b43087" y="11.759062"/>
      </g>
     </g>
     <g id="text_11">
      <!-- 3 -->
      <defs>
       <path d="M 40.578125 39.3125 
Q 47.65625 37.796875 51.625 33 
Q 55.609375 28.21875 55.609375 21.1875 
Q 55.609375 10.40625 48.1875 4.484375 
Q 40.765625 -1.421875 27.09375 -1.421875 
Q 22.515625 -1.421875 17.65625 -0.515625 
Q 12.796875 0.390625 7.625 2.203125 
L 7.625 11.71875 
Q 11.71875 9.328125 16.59375 8.109375 
Q 21.484375 6.890625 26.8125 6.890625 
Q 36.078125 6.890625 40.9375 10.546875 
Q 45.796875 14.203125 45.796875 21.1875 
Q 45.796875 27.640625 41.28125 31.265625 
Q 36.765625 34.90625 28.71875 34.90625 
L 20.21875 34.90625 
L 20.21875 43.015625 
L 29.109375 43.015625 
Q 36.375 43.015625 40.234375 45.921875 
Q 44.09375 48.828125 44.09375 54.296875 
Q 44.09375 59.90625 40.109375 62.90625 
Q 36.140625 65.921875 28.71875 65.921875 
Q 24.65625 65.921875 20.015625 65.03125 
Q 15.375 64.15625 9.8125 62.3125 
L 9.8125 71.09375 
Q 15.4375 72.65625 20.34375 73.4375 
Q 25.25 74.21875 29.59375 74.21875 
Q 40.828125 74.21875 47.359375 69.109375 
Q 53.90625 64.015625 53.90625 55.328125 
Q 53.90625 49.265625 50.4375 45.09375 
Q 46.96875 40.921875 40.578125 39.3125 
z
" id="DejaVuSans-51"/>
      </defs>
      <g transform="translate(34.805 16.318125)scale(0.12 -0.12)">
       <use xlink:href="#DejaVuSans-51"/>
      </g>
     </g>
    </g>
    <g id="text_12">
     <!-- $y$ -->
     <defs>
      <path d="M 24.8125 -5.078125 
Q 18.5625 -15.578125 14.625 -18.1875 
Q 10.6875 -20.796875 4.59375 -20.796875 
L -2.484375 -20.796875 
L -0.984375 -13.28125 
L 4.203125 -13.28125 
Q 7.953125 -13.28125 10.59375 -11.234375 
Q 13.234375 -9.1875 16.5 -3.21875 
L 19.28125 2 
L 7.171875 54.6875 
L 16.703125 54.6875 
L 25.78125 12.796875 
L 50.875 54.6875 
L 60.296875 54.6875 
z
" id="DejaVuSans-Oblique-121"/>
     </defs>
     <g transform="translate(17.809375 151.859062)rotate(-90)scale(0.14 -0.14)">
      <use transform="translate(0 0.3125)" xlink:href="#DejaVuSans-Oblique-121"/>
     </g>
    </g>
   </g>
   <g id="LineCollection_1">
    <path clip-path="url(#pe55cb69c1a)" d="M 162.629555 207.455062 
L 163.83 208.62571 
L 166.388923 211.532062 
L 168.015 212.750985 
L 171.364583 215.609062 
L 172.2 216.097303 
L 178.781116 219.686062 
L 180.57 220.29568 
L 184.755 221.381786 
L 188.94 222.084178 
L 193.125 222.25294 
L 197.31 221.857749 
L 201.495 220.988122 
L 205.866243 219.686062 
L 214.05 215.288573 
L 219.09295 211.532062 
L 223.690398 207.455062 
L 226.605 204.669416 
L 227.764268 203.378062 
L 231.496448 199.301062 
L 235.034185 195.224062 
L 237.855835 191.147062 
L 239.16 189.580101 
L 240.716098 187.070062 
L 243.710115 182.993062 
L 246.093899 178.916062 
L 247.53 176.980105 
L 248.620547 174.839062 
L 251.715 170.012524 
L 253.230308 166.685062 
L 255.9 162.573376 
L 257.559282 158.531062 
L 260.104284 154.454062 
L 261.644046 150.377062 
L 264.27 145.849299 
L 265.541497 142.223062 
L 267.494654 138.146062 
L 268.455 136.647719 
L 269.314697 134.069062 
L 270.907607 129.992062 
L 272.64 127.082132 
L 274.318537 121.838062 
L 276.825 117.036165 
L 277.76912 113.684062 
L 279.183312 109.607062 
L 281.01 106.409949 
L 282.352124 101.453062 
L 283.895844 97.376062 
L 285.195 95.222609 
L 286.762731 89.222062 
L 288.401166 85.145062 
L 289.38 83.612247 
L 291.003402 76.991062 
L 292.620607 72.914062 
L 293.565 71.485024 
L 295.092144 64.760063 
L 296.534388 60.683062 
L 297.75 58.820392 
L 299.064782 52.529062 
L 300.244999 48.452062 
L 301.935 45.691913 
L 303.899011 36.221062 
L 306.135577 32.144062 
L 307.57927 23.990062 
L 308.721732 19.913062 
L 310.305 17.80143 
L 312.046061 7.682062 
L 313.967432 3.605063 
L 314.49 3.285178 
L 315.119017 -1 
M 312.385068 -1 
L 312.262844 -0.471938 
L 310.305 1.956591 
L 308.387174 11.759062 
L 306.12 15.49105 
L 306.046197 15.836062 
L 305.29912 19.913062 
L 304.408764 23.990062 
L 302.630406 28.067062 
L 301.935 28.800207 
L 300.34084 36.221062 
L 298.780169 40.298062 
L 297.75 41.645486 
L 296.172599 48.452062 
L 294.583723 52.529062 
L 293.565 53.958101 
L 291.881046 60.683062 
L 290.09598 64.760063 
L 289.38 65.757228 
L 288.610341 68.837062 
L 287.424726 72.914062 
L 285.187725 76.991062 
L 284.13098 81.068062 
L 282.719479 85.145062 
L 281.01 88.048391 
L 279.433773 93.299062 
L 277.547593 97.376062 
L 276.825 98.472238 
L 275.903795 101.453062 
L 274.370252 105.530062 
L 272.64 108.439993 
L 270.803675 113.684062 
L 268.451618 117.761062 
L 267.029669 121.838062 
L 264.942718 125.915062 
L 264.27 126.933306 
L 263.088135 129.992062 
L 261.036934 134.069062 
L 260.085 135.517073 
L 258.974424 138.146062 
L 256.816498 142.223062 
L 255.9 143.586809 
L 254.656189 146.300062 
L 251.715 151.126601 
L 250.067125 154.454062 
L 247.33909 158.531062 
L 245.074869 162.608062 
L 243.345 165.002133 
L 242.314606 166.685062 
L 239.16 171.030555 
L 236.635767 174.839062 
L 230.024553 182.993062 
L 226.323198 187.070062 
L 222.312245 191.147062 
L 217.856197 195.224062 
L 214.05 198.413341 
L 212.668861 199.301062 
L 209.865 201.409601 
L 201.495 205.850246 
L 197.31 207.190162 
L 196.042048 207.455062 
L 193.125 208.411528 
L 188.94 209.133947 
L 184.755 209.355278 
L 180.57 209.137066 
L 176.385 208.425436 
L 173.42757 207.455062 
L 168.015 206.23614 
L 163.83 205.182629 
L 162.629555 207.455062 
L 162.629555 207.455062 
" style="fill:none;stroke:#440154;stroke-width:1.5;"/>
    <path clip-path="url(#pe55cb69c1a)" style="fill:none;stroke:#440154;stroke-width:1.5;"/>
    <path clip-path="url(#pe55cb69c1a)" style="fill:none;stroke:#440154;stroke-width:1.5;"/>
    <path clip-path="url(#pe55cb69c1a)" style="fill:none;stroke:#440154;stroke-width:1.5;"/>
    <path clip-path="url(#pe55cb69c1a)" style="fill:none;stroke:#440154;stroke-width:1.5;"/>
    <path clip-path="url(#pe55cb69c1a)" style="fill:none;stroke:#440154;stroke-width:1.5;"/>
    <path clip-path="url(#pe55cb69c1a)" style="fill:none;stroke:#440154;stroke-width:1.5;"/>
    <path clip-path="url(#pe55cb69c1a)" style="fill:none;stroke:#440154;stroke-width:1.5;"/>
    <path clip-path="url(#pe55cb69c1a)" style="fill:none;stroke:#440154;stroke-width:1.5;"/>
    <path clip-path="url(#pe55cb69c1a)" style="fill:none;stroke:#440154;stroke-width:1.5;"/>
    <path clip-path="url(#pe55cb69c1a)" style="fill:none;stroke:#440154;stroke-width:1.5;"/>
   </g>
   <g id="LineCollection_2">
    <path clip-path="url(#pe55cb69c1a)" d="M 307.361212 -1 
L 307.191505 -0.471938 
L 306.12 2.284268 
L 304.703638 7.682062 
L 303.435547 11.759062 
L 301.868578 15.836062 
L 300.780646 19.913062 
L 299.514292 23.990062 
L 297.75 28.496632 
L 296.732632 32.144062 
L 295.436189 36.221062 
L 293.565 40.918064 
L 292.549582 44.375062 
L 291.192347 48.452062 
L 289.38 52.821081 
L 288.21173 56.606062 
L 286.757993 60.683062 
L 285.035609 64.760063 
L 283.686852 68.837062 
L 282.088003 72.914062 
L 281.01 75.296916 
L 278.923546 81.068062 
L 276.825 85.733826 
L 275.550163 89.222062 
L 273.836438 93.299062 
L 272.64 95.777655 
L 270.331976 101.453062 
L 268.330089 105.530062 
L 266.630456 109.607062 
L 264.27 114.291448 
L 262.739224 117.761062 
L 254.308277 134.069062 
L 251.715 138.494264 
L 249.671549 142.223062 
L 241.942109 154.454062 
L 234.975 164.103869 
L 230.79 169.2872 
L 226.605 173.965711 
L 221.586771 178.916062 
L 218.235 181.93507 
L 214.05 185.21467 
L 209.865 187.961864 
L 205.68 190.257456 
L 201.495 192.074113 
L 197.31 193.435529 
L 193.125 194.262644 
L 188.94 194.614018 
L 184.755 194.51246 
L 180.57 193.952259 
L 176.385 192.896089 
L 171.979613 191.147062 
L 168.015 189.320864 
L 163.83 186.741636 
L 158.69122 182.993062 
L 155.46 180.353656 
L 151.275 176.41348 
L 147.09 171.979453 
L 146.015716 170.762062 
L 142.629672 166.685062 
L 138.72 161.686821 
L 136.34306 158.531062 
L 130.35 149.499015 
L 128.215548 146.300062 
L 125.882161 142.223062 
L 123.387958 138.146062 
L 121.98 135.436431 
L 121.137276 134.069062 
L 118.901607 129.992062 
L 117.795 127.692051 
L 116.746824 125.915062 
L 114.670291 121.838062 
L 113.61 119.461986 
L 112.639922 117.761062 
L 110.643295 113.684062 
L 109.425 110.739384 
L 108.792459 109.607062 
L 106.794269 105.530062 
L 105.233267 101.453062 
L 103.119718 97.376062 
L 101.055 91.93451 
L 99.649514 89.222062 
L 97.99916 85.145062 
L 96.87 81.780357 
L 96.48988 81.068062 
L 94.604455 76.991062 
L 92.685 71.254165 
L 91.463173 68.837062 
L 89.887418 64.760063 
L 88.5 60.138598 
L 86.782854 56.606062 
L 85.395171 52.529062 
L 84.245059 48.452062 
L 82.338186 44.375062 
L 81.069614 40.298062 
L 80.13 36.647019 
L 79.894189 36.221062 
L 78.070714 32.144062 
L 76.874797 28.067062 
L 75.828306 23.990062 
L 73.949725 19.913062 
L 72.787158 15.836062 
L 71.76 11.340166 
L 69.966306 7.682062 
L 68.791189 3.605062 
L 67.772637 -1 
M 61.983142 -1 
L 62.105853 -0.471938 
L 63.39 6.577959 
L 63.978342 7.682062 
L 65.482048 11.759062 
L 66.442605 15.836062 
L 67.575 21.646938 
L 68.681066 23.990062 
L 69.97865 28.067062 
L 70.922947 32.144062 
L 71.76 36.354085 
L 73.480747 40.298062 
L 74.626315 44.375062 
L 75.945 50.244141 
L 76.990481 52.529062 
L 78.37054 56.606062 
L 80.13 63.791222 
L 80.588762 64.760063 
L 82.196782 68.837062 
L 83.361308 72.914062 
L 84.376463 76.991062 
L 86.153237 81.068062 
L 87.419204 85.145062 
L 88.5 89.328675 
L 90.282163 93.299062 
L 91.616392 97.376062 
L 92.776203 101.453062 
L 94.609494 105.530062 
L 97.38748 113.684062 
L 99.144006 117.761062 
L 101.055 123.518454 
L 102.226267 125.915062 
L 103.884939 129.992062 
L 105.246211 134.069062 
L 107.264469 138.146062 
L 109.425 143.843574 
L 110.699155 146.300062 
L 112.494484 150.377062 
L 113.61 153.26011 
L 114.257232 154.454062 
L 116.277459 158.531062 
L 118.019231 162.608062 
L 120.234118 166.685062 
L 122.060246 170.762062 
L 124.418468 174.839062 
L 126.434638 178.916062 
L 128.879208 182.993062 
L 130.35 185.807566 
L 131.173904 187.070062 
L 134.535 192.677257 
L 136.298967 195.224062 
L 138.838141 199.301062 
L 144.926509 207.455062 
L 148.148644 211.532062 
L 151.62474 215.609062 
L 155.503086 219.686062 
L 159.966566 223.763062 
L 165.265927 227.840062 
L 168.015 229.666261 
L 172.2 232.122781 
L 176.385 233.91687 
L 180.57 235.341085 
L 184.755 236.250343 
L 188.94 236.604107 
L 193.125 236.494767 
L 197.31 235.914502 
L 201.495 234.725799 
L 205.68 233.118385 
L 209.865 231.025261 
L 214.871855 227.840062 
L 218.235 225.294062 
L 222.42 221.689062 
L 226.605 217.592925 
L 231.974082 211.532062 
L 235.343013 207.455062 
L 239.16 202.345462 
L 241.157025 199.301062 
L 243.970021 195.224062 
L 248.963244 187.070062 
L 251.715 182.644861 
L 253.612068 178.916062 
L 256.014796 174.839062 
L 257.956609 170.762062 
L 260.226346 166.685062 
L 262.040739 162.608062 
L 264.27 158.453623 
L 265.913623 154.454062 
L 268.455 149.323707 
L 269.62652 146.300062 
L 271.404985 142.223062 
L 272.64 139.74447 
L 274.798736 134.069062 
L 276.825 129.755472 
L 278.138753 125.915062 
L 279.761247 121.838062 
L 281.01 119.136377 
L 282.845628 113.684062 
L 285.195 108.080134 
L 287.351125 101.453062 
L 289.38 96.559187 
L 290.330955 93.299062 
L 291.661925 89.222062 
L 293.565 84.525061 
L 294.521998 81.068062 
L 295.792557 76.991062 
L 297.75 71.962898 
L 299.766761 64.760063 
L 301.935 58.896783 
L 303.615089 52.529062 
L 304.923979 48.452062 
L 306.12 45.382416 
L 307.369965 40.298062 
L 308.536584 36.221062 
L 310.305 31.359488 
L 312.093149 23.990062 
L 313.33252 19.913062 
L 314.49 16.816743 
L 315.624707 11.759062 
L 316.67996 7.682062 
L 318.675 1.761591 
L 319.26771 -1 
L 319.26771 -1 
" style="fill:none;stroke:#440256;stroke-width:1.5;"/>
    <path clip-path="url(#pe55cb69c1a)" style="fill:none;stroke:#440256;stroke-width:1.5;"/>
    <path clip-path="url(#pe55cb69c1a)" style="fill:none;stroke:#440256;stroke-width:1.5;"/>
    <path clip-path="url(#pe55cb69c1a)" style="fill:none;stroke:#440256;stroke-width:1.5;"/>
    <path clip-path="url(#pe55cb69c1a)" style="fill:none;stroke:#440256;stroke-width:1.5;"/>
   </g>
   <g id="LineCollection_3">
    <path clip-path="url(#pe55cb69c1a)" d="M 51.736557 -1 
L 52.997609 3.605062 
L 55.02 12.040403 
L 57.300768 19.913062 
L 59.346844 28.067062 
L 61.744083 36.221062 
L 63.936111 44.375062 
L 66.334499 52.529062 
L 67.575 57.291223 
L 69.934411 64.760063 
L 72.284608 72.914062 
L 74.841729 81.068062 
L 75.989107 85.145062 
L 77.412513 89.222062 
L 84.315 110.727356 
L 86.853449 117.761062 
L 88.5 122.858081 
L 91.168421 129.992062 
L 92.685 134.509385 
L 94.152092 138.146062 
L 97.145867 146.300062 
L 98.832309 150.377062 
L 102.044054 158.531062 
L 109.425 176.101258 
L 112.622476 182.993062 
L 113.61 185.266237 
L 116.503027 191.147062 
L 118.474384 195.224062 
L 126.165 209.821106 
L 129.551612 215.609062 
L 130.35 217.023023 
L 138.72 229.938768 
L 143.151202 235.994062 
L 147.09 240.901925 
L 151.275 245.62557 
L 155.46 249.866415 
L 159.645 253.619748 
L 163.83 256.894733 
L 168.015 259.651106 
L 172.2 261.911023 
L 176.385 263.701162 
L 180.57 264.997706 
L 184.755 265.773239 
L 188.94 266.070605 
L 193.125 265.881439 
L 197.31 265.21105 
L 201.495 264.039784 
L 205.68 262.3473 
L 209.865 260.217356 
L 214.05 257.538809 
L 218.235 254.384459 
L 222.42 250.747452 
L 226.605 246.615133 
L 230.79 241.989125 
L 235.629924 235.994062 
L 239.16 231.282096 
L 244.213261 223.763062 
L 247.53 218.574899 
L 249.230076 215.609062 
L 251.715 211.519856 
L 253.881754 207.455062 
L 256.171693 203.378062 
L 264.369729 187.070062 
L 266.169998 182.993062 
L 268.455 178.224696 
L 271.665493 170.762062 
L 272.64 168.657485 
L 275.077776 162.608062 
L 276.870153 158.531062 
L 278.393044 154.454062 
L 281.643325 146.300062 
L 283.135503 142.223062 
L 285.195 137.063062 
L 287.660873 129.992062 
L 289.38 125.562559 
L 291.986556 117.761062 
L 293.565 113.558606 
L 296.131648 105.530062 
L 297.75 101.044215 
L 300.117241 93.299062 
L 301.935 88.028032 
L 303.966005 81.068062 
L 306.562078 72.914062 
L 308.929838 64.760063 
L 310.305 60.586457 
L 312.486683 52.529062 
L 314.919916 44.375062 
L 317.112031 36.221062 
L 318.675 31.117416 
L 320.456556 23.990062 
L 323.778076 11.759062 
L 325.898874 3.605062 
L 327.210318 -1 
L 327.210318 -1 
" style="fill:none;stroke:#470d60;stroke-width:1.5;"/>
    <path clip-path="url(#pe55cb69c1a)" d="M 297.904264 -1 
L 297.721491 -0.471938 
L 295.096214 7.682062 
L 293.565 11.884519 
L 290.867754 19.913062 
L 289.330917 23.990062 
L 286.451353 32.144062 
L 284.881472 36.221062 
L 283.408566 40.298062 
L 278.636136 52.529062 
L 268.183214 76.991062 
L 266.367408 81.068062 
L 258.393434 97.376062 
L 254.047236 105.530062 
L 247.53 116.750259 
L 243.345 123.373225 
L 238.787101 129.992062 
L 234.975 135.13874 
L 230.79 140.305 
L 226.605 144.971401 
L 222.42 149.155055 
L 218.235 152.858988 
L 214.05 156.072548 
L 209.865 158.769769 
L 205.68 161.041006 
L 201.495 162.763754 
L 197.31 164.065072 
L 193.125 164.851743 
L 188.94 165.14752 
L 184.755 164.960988 
L 180.57 164.286769 
L 176.385 163.104641 
L 172.2 161.474498 
L 168.015 159.336019 
L 163.83 156.733326 
L 159.645 153.616393 
L 155.46 150.013823 
L 151.275 145.939044 
L 147.09 141.3922 
L 142.905 136.360063 
L 138.135698 129.992062 
L 132.578 121.838062 
L 127.538961 113.684062 
L 122.891576 105.530062 
L 117.795 95.881406 
L 114.45491 89.222062 
L 108.711366 76.991062 
L 106.859565 72.914062 
L 98.286288 52.529062 
L 96.737676 48.452062 
L 95.064691 44.375062 
L 87.5086 23.990062 
L 86.035368 19.913062 
L 83.216232 11.759062 
L 80.509842 3.605062 
L 80.13 2.388129 
L 78.924247 -1 
L 78.924247 -1 
" style="fill:none;stroke:#470d60;stroke-width:1.5;"/>
   </g>
   <g id="LineCollection_4">
    <path clip-path="url(#pe55cb69c1a)" d="M 34.822933 -1 
L 36.875976 7.682062 
L 38.750082 15.836062 
L 41.700141 28.067062 
L 42.649092 32.144062 
L 45.708821 44.375062 
L 46.663522 48.452062 
L 48.809389 56.606062 
L 51.931443 68.837062 
L 60.701101 101.453062 
L 67.610349 125.915062 
L 70.104242 134.069062 
L 72.543282 142.223062 
L 81.652763 170.762062 
L 85.788953 182.993062 
L 90.10137 195.224062 
L 94.611404 207.455062 
L 97.713079 215.609062 
L 105.24 234.193638 
L 113.61 252.895268 
L 121.98 269.620995 
L 128.294107 280.841062 
L 130.683707 284.918062 
L 135.934066 293.072062 
L 138.72 297.205417 
L 142.905 302.855651 
L 148.296508 309.380062 
L 152.007762 313.457062 
L 156.154218 317.534062 
L 160.933176 321.611063 
L 163.83 323.826638 
L 168.015 326.554671 
L 170.580756 327.922187 
M 207.696765 327.922187 
L 209.865 326.788982 
L 214.05 324.111146 
L 218.235 320.9527 
L 222.42 317.302177 
L 226.605 313.154132 
L 230.79 308.50948 
L 236.565339 301.226062 
L 239.578353 297.149062 
L 243.345 291.648451 
L 247.613816 284.918062 
L 252.364801 276.764062 
L 256.799452 268.610062 
L 260.970317 260.456062 
L 264.921213 252.302062 
L 270.443709 240.071062 
L 272.64 235.147322 
L 282.136387 211.532062 
L 288.193302 195.224062 
L 289.689295 191.147062 
L 299.302502 162.608062 
L 303.19999 150.377062 
L 310.652249 125.915062 
L 312.973785 117.761062 
L 315.322573 109.607062 
L 325.272735 72.914062 
L 327.446621 64.760063 
L 330.550819 52.529062 
L 331.594548 48.452062 
L 334.59929 36.221062 
L 335.633772 32.144062 
L 338.53287 19.913062 
L 339.6 15.720473 
L 340.4575 11.836875 
L 340.4575 11.836875 
" style="fill:none;stroke:#423f85;stroke-width:1.5;"/>
    <path clip-path="url(#pe55cb69c1a)" d="M 273.227238 -1 
L 269.459087 7.682062 
L 264.27 18.960343 
L 259.804274 28.067062 
L 255.556946 36.221062 
L 251.019409 44.375062 
L 246.121264 52.529062 
L 243.345 56.876408 
L 237.868991 64.760063 
L 234.807667 68.837062 
L 230.79 73.784645 
L 226.605 78.446941 
L 222.42 82.617476 
L 218.235 86.297436 
L 214.05 89.481761 
L 209.865 92.198143 
L 205.68 94.417102 
L 201.495 96.14891 
L 197.31 97.377199 
L 193.125 98.143374 
L 188.94 98.413539 
L 184.755 98.191159 
L 180.233584 97.376062 
L 176.385 96.28969 
L 172.2 94.607571 
L 168.015 92.432454 
L 163.104804 89.222062 
L 159.645 86.630524 
L 155.46 82.99682 
L 151.275 78.874001 
L 145.978813 72.914062 
L 142.667088 68.837062 
L 138.72 63.575841 
L 133.958893 56.606062 
L 128.852292 48.452062 
L 124.144353 40.298062 
L 119.756432 32.144062 
L 115.631123 23.990062 
L 111.726356 15.836062 
L 106.220927 3.605062 
L 104.241145 -1 
L 104.241145 -1 
" style="fill:none;stroke:#423f85;stroke-width:1.5;"/>
   </g>
   <g id="LineCollection_5">
    <path clip-path="url(#pe55cb69c1a)" d="M 2.460426 -1 
L 11.365377 44.375062 
L 15.514593 64.760063 
L 19.764858 85.145062 
L 23.24295 101.453062 
L 29.91 131.964206 
L 33.196411 146.300062 
L 35.07953 154.454062 
L 43.856418 191.147062 
L 51.027792 219.686062 
L 62.060544 260.456062 
L 64.369406 268.610062 
L 71.76 293.723022 
L 80.612239 321.611063 
L 82.735258 327.922187 
M 295.318453 327.922187 
L 301.401826 309.380062 
L 302.684231 305.303062 
L 310.305 280.347458 
L 320.499845 244.148062 
L 325.939114 223.763062 
L 328.05294 215.609062 
L 336.205207 182.993062 
L 340.4575 165.229808 
L 340.4575 165.229808 
" style="fill:none;stroke:#fde725;stroke-width:1.5;"/>
    <path clip-path="url(#pe55cb69c1a)" style="fill:none;stroke:#fde725;stroke-width:1.5;"/>
   </g>
   <g id="line2d_11">
    <defs>
     <path d="M -3 0 
L 3 0 
M 0 3 
L 0 -3 
" id="m2e0cf3905a" style="stroke:#ff0000;"/>
    </defs>
    <g clip-path="url(#pe55cb69c1a)">
     <use style="fill:#ff0000;stroke:#ff0000;" x="258.651719" xlink:href="#m2e0cf3905a" y="147.729383"/>
    </g>
   </g>
   <g id="patch_3">
    <path d="M 49.44 283.559062 
L 49.44 11.759062 
" style="fill:none;stroke:#000000;stroke-linecap:square;stroke-linejoin:miter;stroke-width:0.8;"/>
   </g>
   <g id="patch_4">
    <path d="M 328.44 283.559062 
L 328.44 11.759062 
" style="fill:none;stroke:#000000;stroke-linecap:square;stroke-linejoin:miter;stroke-width:0.8;"/>
   </g>
   <g id="patch_5">
    <path d="M 49.44 283.559062 
L 328.44 283.559062 
" style="fill:none;stroke:#000000;stroke-linecap:square;stroke-linejoin:miter;stroke-width:0.8;"/>
   </g>
   <g id="patch_6">
    <path d="M 49.44 11.759062 
L 328.44 11.759062 
" style="fill:none;stroke:#000000;stroke-linecap:square;stroke-linejoin:miter;stroke-width:0.8;"/>
   </g>
  </g>
 </g>
 <defs>
  <clipPath id="pe55cb69c1a">
   <rect height="271.8" width="279" x="49.44" y="11.759062"/>
  </clipPath>
 </defs>
</svg>
